<?xml version="1.0" encoding="UTF-8"?>
<svg version="1.1" xmlns="http://www.w3.org/2000/svg" width="512" height="512">
<path d="M0 0 C9.19670363 8.16655339 14.49488119 17.01588094 19.40625 28.13671875 C19.40625 28.46671875 19.40625 28.79671875 19.40625 29.13671875 C18.50084473 29.28705566 18.50084473 29.28705566 17.57714844 29.44042969 C1.19891804 32.14883657 1.19891804 32.14883657 -14.59375 37.13671875 C-14.74070312 37.97589844 -14.74070312 37.97589844 -14.890625 38.83203125 C-19.30225188 62.48747883 -28.23561692 82.98470022 -48.59375 97.13671875 C-58.6257746 103.6021253 -69.08580571 107.23016013 -80.59375 110.13671875 C-81.82867187 110.45640625 -83.06359375 110.77609375 -84.3359375 111.10546875 C-87.08406408 111.80381621 -89.83476415 112.48285505 -92.59375 113.13671875 C-92.59375 114.45671875 -92.59375 115.77671875 -92.59375 117.13671875 C-85.90040183 119.57094761 -79.20802648 121.23063313 -72.21875 122.57421875 C-70.58317139 122.89072388 -70.58317139 122.89072388 -68.91455078 123.21362305 C-53.59568569 126.03775357 -38.07992658 127.54489641 -22.59375 129.13671875 C-24.05874624 134.04138388 -25.53100915 138.94255063 -27.05859375 143.828125 C-43.45512543 197.41719091 -39.75916697 259.99300742 -19.59375 312.13671875 C-48.99337601 311.46716205 -78.99083861 299.0060471 -99.59375 278.13671875 C-100.4290625 277.30011719 -101.264375 276.46351563 -102.125 275.6015625 C-107.48546648 269.96413858 -111.18717593 264.10518182 -114.59375 257.13671875 C-115.00753906 256.32074219 -115.42132813 255.50476563 -115.84765625 254.6640625 C-116.77676463 252.82850692 -117.68766116 250.983746 -118.59375 249.13671875 C-119.91375 249.13671875 -121.23375 249.13671875 -122.59375 249.13671875 C-123.84540058 254.50838584 -123.37365744 259.1317221 -122.59375 264.51171875 C-122.46492432 265.41567383 -122.33609863 266.31962891 -122.20336914 267.25097656 C-120.72498667 276.66572732 -118.04057728 285.66139137 -115.21484375 294.74609375 C-113.74003015 299.5042143 -112.60234435 304.25933711 -111.59375 309.13671875 C-116.56318634 307.67285378 -120.80855527 305.55970812 -125.28125 303.01171875 C-125.98677002 302.61065918 -126.69229004 302.20959961 -127.41918945 301.79638672 C-133.46580841 298.30437646 -139.1170624 294.47539335 -144.59375 290.13671875 C-145.10502441 289.73759277 -145.61629883 289.3384668 -146.14306641 288.92724609 C-163.10070533 275.59429612 -176.70486681 258.91896041 -180.59375 237.13671875 C-181.23305418 231.15050691 -181.45733611 225.15257111 -181.59375 219.13671875 C-182.91375 218.80671875 -184.23375 218.47671875 -185.59375 218.13671875 C-188.65695929 223.82739419 -190.69236228 229.16397557 -192.15625 235.44921875 C-192.36531982 236.32989014 -192.57438965 237.21056152 -192.78979492 238.11791992 C-195.43472923 249.96546848 -196.4906268 262.06555613 -197.59375 274.13671875 C-201.71821949 272.28927752 -203.7992833 269.65008228 -206.34375 266.01171875 C-206.77840576 265.39280762 -207.21306152 264.77389648 -207.66088867 264.13623047 C-219.19233771 247.27235601 -225.35375045 229.15310073 -226.15625 208.76171875 C-226.22102539 207.22837891 -226.22102539 207.22837891 -226.28710938 205.6640625 C-226.39262792 203.15506587 -226.49474213 200.64597932 -226.59375 198.13671875 C-231.91781979 196.30457391 -236.54377878 198.71777397 -241.65625 200.44921875 C-243.25641968 200.98639526 -243.25641968 200.98639526 -244.88891602 201.53442383 C-255.04616776 205.07412952 -264.2791667 209.81440373 -273.59375 215.13671875 C-275.27091531 216.0725026 -276.94928804 217.00612598 -278.62890625 217.9375 C-279.38695557 218.35813721 -280.14500488 218.77877441 -280.92602539 219.2121582 C-281.47637451 219.51726318 -282.02672363 219.82236816 -282.59375 220.13671875 C-282.81124953 212.49820973 -282.26980798 205.28712798 -280.96875 197.76171875 C-280.79053711 196.72225098 -280.61232422 195.6827832 -280.42871094 194.61181641 C-278.5588485 184.21367276 -275.87446051 174.17283029 -272.59375 164.13671875 C-272.16884277 162.83516846 -272.16884277 162.83516846 -271.73535156 161.50732422 C-261.87872346 131.88842906 -247.58653294 103.64312817 -229.59375 78.13671875 C-229.14837891 77.5034668 -228.70300781 76.87021484 -228.24414062 76.21777344 C-220.45543131 65.17186763 -220.45543131 65.17186763 -217.80859375 61.9921875 C-216.22856916 59.94859897 -216.22856916 59.94859897 -216.59375 56.13671875 C-231.21817488 48.82450631 -261.07888652 60.39098947 -275.59375 65.13671875 C-271.22379064 51.56299022 -254.05068763 42.18660696 -242.09375 36.01171875 C-228.11558813 29.11908014 -213.40102328 24.75759718 -197.98828125 22.64453125 C-194.73683122 22.33740961 -194.73683122 22.33740961 -192.59375 21.13671875 C-192.92375 19.48671875 -193.25375 17.83671875 -193.59375 16.13671875 C-195.11742187 16.18892578 -195.11742187 16.18892578 -196.671875 16.2421875 C-210.58515352 16.57822423 -222.67242281 14.90519054 -233.55859375 5.42578125 C-240.91812318 -2.20751623 -246.59375 -14.16877169 -246.59375 -24.86328125 C-246.00996582 -24.74734619 -245.42618164 -24.63141113 -244.82470703 -24.51196289 C-242.12364817 -23.97841711 -239.42123125 -23.45207308 -236.71875 -22.92578125 C-235.8009375 -22.74337891 -234.883125 -22.56097656 -233.9375 -22.37304688 C-205.36411282 -16.83946837 -176.37921498 -20.9634821 -148.65625 -28.92578125 C-98.70704649 -43.02981036 -40.48129388 -33.6276571 0 0 Z M-132.28125 12.38671875 C-133.80748442 14.02594546 -133.80748442 14.02594546 -133.46899414 16.03027344 C-132.2480902 18.9686163 -130.55903776 19.87174224 -127.90234375 21.58984375 C-126.95810547 22.20859375 -126.01386719 22.82734375 -125.04101562 23.46484375 C-124.04779297 24.0990625 -123.05457031 24.73328125 -122.03125 25.38671875 C-121.03416016 26.03640625 -120.03707031 26.68609375 -119.00976562 27.35546875 C-116.54433019 28.95977123 -114.07236587 30.55288606 -111.59375 32.13671875 C-111.94888672 32.80348633 -112.30402344 33.47025391 -112.66992188 34.15722656 C-113.12947266 35.04249023 -113.58902344 35.92775391 -114.0625 36.83984375 C-114.52076172 37.71286133 -114.97902344 38.58587891 -115.45117188 39.48535156 C-117.65993607 44.6108172 -117.26358626 49.04348044 -115.59375 54.26171875 C-112.62075331 58.53540149 -108.63730068 63.11239028 -103.57421875 64.81640625 C-97.56406969 65.78846192 -92.84468052 65.55397899 -87.4921875 62.61328125 C-83.94472218 59.85414156 -81.54622825 56.15261151 -79.59375 52.13671875 C-79.59375 51.14671875 -79.59375 50.15671875 -79.59375 49.13671875 C-78.67335938 49.42546875 -77.75296875 49.71421875 -76.8046875 50.01171875 C-66.42471764 53.05594616 -54.63911696 55.93341673 -44.27734375 51.25390625 C-40.47669429 48.73189756 -37.24491714 45.32910988 -35.93359375 40.9140625 C-35.76537109 40.03427734 -35.76537109 40.03427734 -35.59375 39.13671875 C-38.89320591 38.20032665 -38.89320591 38.20032665 -42.59375 38.13671875 C-44.72177546 40.44238558 -44.72177546 40.44238558 -46.59375 43.13671875 C-55.41729951 47.44589409 -65.66824288 44.93005449 -74.59375 42.13671875 C-91.97030202 35.702022 -107.45642404 25.8816268 -122.52709961 15.2512207 C-123.29030518 14.71585693 -124.05351074 14.18049316 -124.83984375 13.62890625 C-125.51716553 13.1479248 -126.1944873 12.66694336 -126.89233398 12.17138672 C-129.25316204 10.73571599 -130.05254445 10.73582575 -132.28125 12.38671875 Z M-220.06640625 91.08203125 C-220.95035331 92.46224124 -221.81207113 93.85683297 -222.65625 95.26171875 C-223.12595215 96.01727051 -223.5956543 96.77282227 -224.07958984 97.55126953 C-244.8844602 128.08943785 -244.8844602 128.08943785 -254.2109375 161.98828125 C-254.00726563 162.69726562 -253.80359375 163.40625 -253.59375 164.13671875 C-252.60375 164.46671875 -251.61375 164.79671875 -250.59375 165.13671875 C-247.59850105 162.40618261 -245.91603119 160.15403814 -244.47265625 156.375 C-244.10156738 155.43358154 -243.73047852 154.49216309 -243.34814453 153.5222168 C-242.95481934 152.50812744 -242.56149414 151.49403809 -242.15625 150.44921875 C-234.88668101 132.42074253 -226.17213975 115.07847877 -215.11181641 99.05932617 C-212.22948038 94.96262273 -212.22948038 94.96262273 -211.7734375 90.12109375 C-212.04414063 89.46625 -212.31484375 88.81140625 -212.59375 88.13671875 C-216.63391132 87.31278603 -217.36463569 87.86380849 -220.06640625 91.08203125 Z M-53.59375 158.13671875 C-56.26127836 160.80424711 -56.47800679 163.48622565 -57.09375 167.07421875 C-57.22048096 167.80640625 -57.34721191 168.53859375 -57.4777832 169.29296875 C-61.64918407 195.28827244 -60.85725506 221.037181 -58.59375 247.13671875 C-56.94375 247.79671875 -55.29375 248.45671875 -53.59375 249.13671875 C-51.38566532 247.34977695 -51.38566532 247.34977695 -51.37342834 244.97642517 C-51.38691818 244.07920242 -51.40040802 243.18197968 -51.41430664 242.25756836 C-51.42414078 241.23727036 -51.43397491 240.21697235 -51.44410706 239.16575623 C-51.46384079 238.0514473 -51.48357452 236.93713837 -51.50390625 235.7890625 C-51.52438612 233.40299733 -51.54455731 231.01692949 -51.56445312 228.63085938 C-51.60731844 224.89092115 -51.65511669 221.15115535 -51.71020508 217.41137695 C-51.91895502 202.14589493 -51.38820305 187.39921587 -49.24780273 172.27172852 C-48.68764089 168.15816111 -48.28445878 164.28329461 -48.59375 160.13671875 C-49.25375 159.47671875 -49.91375 158.81671875 -50.59375 158.13671875 C-51.58375 158.13671875 -52.57375 158.13671875 -53.59375 158.13671875 Z " fill="#000000" transform="translate(346.59375,116.86328125)"/>
<path d="M0 0 C1.06154297 0.76570312 1.06154297 0.76570312 2.14453125 1.546875 C15.2602165 11.99803248 22.57414679 28.75514852 25 45 C26.62570455 60.04331282 26.23444928 75.18034147 23 90 C20.37146476 87.57365978 18.25812539 85.0227653 16.1875 82.125 C9.64833439 73.37906882 0.87939979 68.00409996 -10 66 C-21.58776293 65.12626262 -32.69421063 66.61813306 -44.11743164 68.48901367 C-56.86280382 70.56537464 -69.46873979 71.23529038 -82.375 71.25 C-83.07955322 71.25133942 -83.78410645 71.25267883 -84.51000977 71.25405884 C-105.80068185 71.2454133 -127.14303646 69.3697353 -148 65 C-146.50203229 62.00406458 -144.36854964 61.9054845 -141.25 60.8125 C-118.41182383 52.24193717 -102.58041855 37.76132967 -92.4921875 15.703125 C-89.70929197 8.87086651 -88.08281143 2.18898653 -86.96875 -5.1015625 C-86 -8 -86 -8 -83.80078125 -9.796875 C-80.77281901 -11.0975896 -77.90756491 -11.92314154 -74.6875 -12.625 C-73.61886719 -12.86476562 -72.55023438 -13.10453125 -71.44921875 -13.3515625 C-46.6073384 -18.02172347 -20.84962025 -15.05624068 0 0 Z M-56 15 C-55.59471099 17.78237655 -55.59471099 17.78237655 -54 20 C-51.54190002 20.2500773 -51.54190002 20.2500773 -49 20 C-48.34 19.34 -47.68 18.68 -47 18 C-47.40528901 15.21762345 -47.40528901 15.21762345 -49 13 C-52.961168 12.60909667 -52.961168 12.60909667 -56 15 Z " fill="#000000" transform="translate(423,168)"/>
<path d="M0 0 C4.98306391 0.40662984 8.54914186 2.13472247 12.875 4.5625 C14.02742188 5.20316406 15.17984375 5.84382812 16.3671875 6.50390625 C17.67042969 7.24447266 17.67042969 7.24447266 19 8 C18.265625 14.640625 18.265625 14.640625 15.875 17.875 C12.37862445 20.45927758 10.33639416 21 6 21 C1.87293617 19.49203437 -0.92580465 17.93005435 -3 14 C-4.09215618 9.78739761 -4.28040123 7.68825757 -2.625 3.625 C-1 1 -1 1 0 0 Z " fill="#000000" transform="translate(241,154)"/>
</svg>
