<?xml version="1.0" encoding="UTF-8"?>
<svg version="1.1" xmlns="http://www.w3.org/2000/svg" width="512" height="512">
<path d="M0 0 C1.27423828 0.94746094 1.27423828 0.94746094 2.57421875 1.9140625 C5.40545958 4.34865606 7.68413258 7.04350422 9.9375 10 C10.3691748 10.56380371 10.80084961 11.12760742 11.24560547 11.70849609 C21 24.80558624 21 24.80558624 21 32 C22.13695312 32.09796875 23.27390625 32.1959375 24.4453125 32.296875 C46.74779627 34.37999399 65.31879281 40.71751953 81 57 C81.67546875 57.65613281 82.3509375 58.31226563 83.046875 58.98828125 C97.0921681 73.49967921 100.24273503 94.80874791 100.3125 114.0625 C100.31545074 114.7736496 100.31840149 115.48479919 100.32144165 116.21749878 C100.33519282 130.80462021 99.46915652 145.67116046 93 159 C91 161 91 161 87.5625 161.375 C84 161 84 161 82.390625 159.30078125 C80.90288967 156.83933151 80.0533023 154.55223058 79.1875 151.8125 C75.79409662 142.24463333 71.19438184 135.65238875 62 131 C51.77969899 126.72605594 39.63955494 129.12911523 29.125 130.9375 C13.29809967 133.49776662 -1.9828005 134.14502495 -18 134 C-35.98897522 186.45987055 -36.45103162 247.25731927 -15.4296875 299.12890625 C-14.1339066 301.7310892 -13.02078517 303.02033546 -11 305 C-10.3597561 310.97560976 -10.3597561 310.97560976 -12.07421875 313.71875 C-15.00502355 315.66865664 -17.8159777 315.26260404 -21.1875 315 C-21.92436035 314.94730957 -22.6612207 314.89461914 -23.42041016 314.84033203 C-50.97149086 312.43844294 -79.98331677 303.56410799 -101 285 C-102.99255691 283.32423349 -104.99635911 281.66253464 -107 280 C-105.87749905 283.39666453 -104.75155808 286.79217913 -103.625 290.1875 C-103.30789062 291.14720703 -102.99078125 292.10691406 -102.6640625 293.09570312 C-102.3546875 294.02705078 -102.0453125 294.95839844 -101.7265625 295.91796875 C-101.44377441 296.77156982 -101.16098633 297.6251709 -100.86962891 298.50463867 C-100.02030482 301.03947023 -100.02030482 301.03947023 -98.88037109 303.5871582 C-97.62662502 307.02331251 -98.14006599 309.49411519 -99 313 C-102.36969839 315.2464656 -103.82011868 315.18349403 -107.72558594 314.5703125 C-111.98182571 313.50305444 -115.75026172 311.51936723 -119.625 309.5 C-120.49874268 309.05293701 -121.37248535 308.60587402 -122.27270508 308.14526367 C-144.71097174 296.4783532 -165.479732 280.77209549 -178.37109375 258.6875 C-179.87398273 255.96722378 -179.87398273 255.96722378 -182 254 C-182.04487549 254.73637695 -182.08975098 255.47275391 -182.13598633 256.23144531 C-182.34747196 259.57202285 -182.57974842 262.91083961 -182.8125 266.25 C-182.91788086 267.98830078 -182.91788086 267.98830078 -183.02539062 269.76171875 C-183.14624023 271.43427734 -183.14624023 271.43427734 -183.26953125 273.140625 C-183.33760986 274.16704102 -183.40568848 275.19345703 -183.47583008 276.25097656 C-184.06051427 279.31736875 -184.80553268 280.79683087 -187 283 C-191.35979824 283.73686731 -193.28634394 283.50375722 -196.921875 280.9375 C-197.88709641 279.98051829 -198.82885715 278.99948097 -199.75 278 C-200.51425293 277.19792114 -200.51425293 277.19792114 -201.29394531 276.37963867 C-217.03928134 259.33353755 -230.38774307 235.30524378 -230.0625 211.5625 C-230.05347656 210.69753906 -230.04445312 209.83257812 -230.03515625 208.94140625 C-230.02355469 208.30074219 -230.01195312 207.66007813 -230 207 C-245.48650063 212.37245225 -258.93970965 218.99337466 -272 229 C-275.46923881 231.31282587 -276.92205575 231.42478586 -281 231 C-283.0444589 229.4569611 -283.88746281 228.55126222 -284.40405273 226.02075195 C-284.41380127 225.26753662 -284.4235498 224.51432129 -284.43359375 223.73828125 C-284.44511475 222.87936279 -284.45663574 222.02044434 -284.46850586 221.13549805 C-284.45827393 220.20390869 -284.44804199 219.27231934 -284.4375 218.3125 C-284.42505249 216.84840698 -284.42505249 216.84840698 -284.41235352 215.35473633 C-283.24933364 163.38306155 -257.65343285 112.47915055 -228 71 C-243.57946773 73.30059498 -258.56417966 77.16407075 -273.08984375 83.3125 C-275.83561298 84.30075232 -278.12759536 84.4203519 -281 84 C-284 82 -284 82 -284.75 78.6875 C-284.50023807 71.81904687 -279.07889065 66.18030724 -275 61 C-274.37738281 60.19175781 -273.75476563 59.38351563 -273.11328125 58.55078125 C-261.79674518 44.87765633 -244.63574571 33.71939687 -228 28 C-227.34 28 -226.68 28 -226 28 C-226.721875 27.278125 -227.44375 26.55625 -228.1875 25.8125 C-229.115625 24.884375 -230.04375 23.95625 -231 23 C-231.78375 22.2575 -232.5675 21.515 -233.375 20.75 C-243.93639831 9.68567796 -249.35404962 -2.76656129 -251 -18 C-250.48057714 -24.51942286 -250.48057714 -24.51942286 -248 -27 C-242.76136679 -27.59305282 -238.87484692 -26.76109154 -233.875 -25.125 C-205.78050295 -16.07054495 -176.43010471 -22.10441807 -148.63354492 -29.13085938 C-96.75582949 -42.24400527 -42.72419366 -32.99836095 0 0 Z M-153.1652832 -14.56176758 C-180.64897776 -7.18982369 -207.97190612 -6.09508357 -236 -11 C-232.88985239 0.34666683 -228.49790578 9.87593769 -218 16 C-210.80690675 19.6130022 -204.36460893 20.63266262 -196.375 20.75 C-195.37082031 20.77964844 -194.36664063 20.80929688 -193.33203125 20.83984375 C-190.88794463 20.9096748 -188.44476321 20.9627929 -186 21 C-185.91903197 22.45742463 -185.86082226 23.91612807 -185.8125 25.375 C-185.76029297 26.59316406 -185.76029297 26.59316406 -185.70703125 27.8359375 C-185.80371094 28.55007812 -185.90039062 29.26421875 -186 30 C-189.58123015 32.38748677 -192.72084714 32.63690672 -196.875 33.1875 C-220.25470439 36.73422193 -241.33140747 46.06821917 -258 63 C-257.15405273 62.82609741 -257.15405273 62.82609741 -256.29101562 62.64868164 C-253.69464371 62.11680816 -251.09733924 61.58962854 -248.5 61.0625 C-247.1696875 60.78889648 -247.1696875 60.78889648 -245.8125 60.50976562 C-237.24115879 58.77659001 -228.94102904 57.80466685 -220.1875 57.75 C-219.34251953 57.729375 -218.49753906 57.70875 -217.62695312 57.6875 C-216.40975586 57.67976563 -216.40975586 57.67976563 -215.16796875 57.671875 C-214.43860107 57.6625293 -213.7092334 57.65318359 -212.95776367 57.64355469 C-210.40877351 58.10764318 -209.51979432 58.92741686 -208 61 C-208.06681181 66.67900402 -209.78318193 69.60334255 -213.375 73.875 C-244.07026167 111.79724733 -267.10582984 162.18859127 -271 211 C-270.27296875 210.63648438 -269.5459375 210.27296875 -268.796875 209.8984375 C-266.66562271 208.83281135 -264.53266637 207.77058959 -262.3984375 206.7109375 C-260.30734651 205.65818135 -258.22646608 204.58446525 -256.1640625 203.4765625 C-250.18761912 200.31256306 -244.14368794 197.84970521 -237.75 195.6875 C-237.00540527 195.43291016 -236.26081055 195.17832031 -235.49365234 194.91601562 C-230.65608624 193.33754329 -226.09284288 192.28961446 -221 192 C-220.01 192.66 -219.02 193.32 -218 194 C-217.63110352 195.99267578 -217.63110352 195.99267578 -217.62890625 198.4453125 C-217.60727417 199.80172852 -217.60727417 199.80172852 -217.58520508 201.18554688 C-217.5777124 202.15556641 -217.57021973 203.12558594 -217.5625 204.125 C-216.99898892 224.49733026 -211.05342032 246.34977261 -196 261 C-195.91024902 260.28682617 -195.82049805 259.57365234 -195.72802734 258.83886719 C-190.5328911 218.5328911 -190.5328911 218.5328911 -184 212 C-178.78952167 211.44569379 -178.78952167 211.44569379 -176.30859375 213.1875 C-174.49962544 215.6930561 -174.80131085 217.2535149 -175 220.3125 C-175.34014803 238.02145661 -167.87219862 254.11458963 -156 267 C-155.27425781 267.80566406 -154.54851562 268.61132812 -153.80078125 269.44140625 C-144.00966481 279.78276725 -131.75207762 288.63482326 -119 295 C-118.34 295 -117.68 295 -117 295 C-117.15855469 294.37738281 -117.31710938 293.75476563 -117.48046875 293.11328125 C-118.33082033 289.74476144 -119.16683801 286.37280033 -120 283 C-120.20351074 282.18015625 -120.40702148 281.3603125 -120.61669922 280.515625 C-121.29242552 277.7827541 -121.95940887 275.04785553 -122.625 272.3125 C-122.84309326 271.43440674 -123.06118652 270.55631348 -123.28588867 269.65161133 C-125.00393704 262.53837026 -126.12035006 255.45777339 -126.1875 248.125 C-126.20167969 247.40570313 -126.21585938 246.68640625 -126.23046875 245.9453125 C-126 244 -126 244 -124 241 C-120.5625 240.5 -120.5625 240.5 -117 241 C-114.63786145 244.30344188 -113.07043649 247.94659686 -111.375 251.625 C-101.11969134 272.21139546 -80.57946292 286.32688951 -59.234375 293.703125 C-44.90876871 298.45492756 -44.90876871 298.45492756 -30 300 C-30.27263672 299.01773438 -30.27263672 299.01773438 -30.55078125 298.015625 C-44.92240469 245.83557682 -50.78534174 190.81329482 -33.171875 138.61328125 C-31.8971651 135.31601981 -31.8971651 135.31601981 -32 133 C-32.67651611 132.93530518 -33.35303223 132.87061035 -34.05004883 132.80395508 C-47.29027314 131.50851027 -60.41588581 129.93222682 -73.5 127.5 C-74.58901611 127.29866455 -75.67803223 127.0973291 -76.80004883 126.88989258 C-83.63247192 125.57752408 -90.31666477 123.93133123 -97 122 C-97.25 115.375 -97.25 115.375 -95 112 C-93.03564453 111.27978516 -93.03564453 111.27978516 -90.6328125 110.7890625 C-89.31277222 110.50397827 -89.31277222 110.50397827 -87.96606445 110.21313477 C-86.55973755 109.92200806 -86.55973755 109.92200806 -85.125 109.625 C-64.27529307 104.97313922 -47.65661988 95.8854386 -35.03515625 78.2109375 C-29.04846953 68.76553158 -26.22496264 59.25052191 -24.55541992 48.30834961 C-23.56740801 42.54484706 -23.56740801 42.54484706 -21.03515625 40.11328125 C-16.60004989 38.48650478 -12.10686323 37.40156375 -7.5 36.375 C-6.09427734 36.05015625 -6.09427734 36.05015625 -4.66015625 35.71875 C-0.45076918 34.75148659 3.76223207 33.83491198 8 33 C-1.81257249 10.26836223 -23.73475013 -2.40635266 -45.88427734 -11.34082031 C-55.75169346 -15.15106413 -65.61732341 -18.01338514 -76 -20 C-77.62615234 -20.33644531 -77.62615234 -20.33644531 -79.28515625 -20.6796875 C-104.22181847 -25.10344532 -129.05544989 -21.06609116 -153.1652832 -14.56176758 Z M-12 50 C-12.268125 51.1859375 -12.53625 52.371875 -12.8125 53.59375 C-18.3202507 76.7913836 -28.88839096 96.46510482 -49.6875 109.375 C-54.01752541 111.99566295 -58.33023852 114.0851041 -63 116 C-63 116.33 -63 116.66 -63 117 C-31.25536159 121.87567557 0.63707421 123.0659852 32.375 117.375 C48.36060708 114.55030438 62.77517473 115.37372483 76.83203125 124.33984375 C80.12764308 126.86351047 82.49251867 129.70068246 85 133 C90.71944339 123.48946421 88.09999072 104.46746546 85.87036133 93.92504883 C81.51484768 76.99886592 72.6640272 64.39276049 58 55 C47.12927742 48.92245839 35.41524375 45.74398464 23 45 C21.99839844 44.938125 21.99839844 44.938125 20.9765625 44.875 C9.81027364 44.54291706 -1.38171313 46.68868393 -12 50 Z " fill="#000000" transform="translate(348,116)"/>
<path d="M0 0 C2.68426584 1.36933958 5.02823693 3.13655289 7.4375 4.9375 C8.86486685 5.95768181 10.29460702 6.97455025 11.7265625 7.98828125 C12.80212402 8.75325928 12.80212402 8.75325928 13.89941406 9.53369141 C28.62019732 19.80949618 50.3791749 34.23449901 69 32 C73.30843924 30.41772398 73.30843924 30.41772398 76 27 C77.6045556 27.14148989 79.20863767 27.28835686 80.8125 27.4375 C82.15248047 27.55931641 82.15248047 27.55931641 83.51953125 27.68359375 C86 28 86 28 89 29 C88.62714279 34.22000092 86.91245608 37.58741546 83 41 C74.98424012 46.10093811 66.7803878 47.11836524 57.52734375 45.328125 C54.33956876 44.59275144 51.1664036 43.82218826 48 43 C47.62488281 43.53109375 47.24976563 44.0621875 46.86328125 44.609375 C42.44051216 50.71435601 38.61496728 55.20824299 31 57 C25.13172488 57.47324799 20.13446181 57.07452803 15 54 C10.16412907 49.78167644 6.89334057 45.47671912 6 39 C6.02871441 32.99868837 6.84291985 28.21604547 10 23 C9.30132812 22.76023438 8.60265625 22.52046875 7.8828125 22.2734375 C4.49273473 20.77592347 1.83248378 18.85608426 -1.125 16.625 C-2.15882813 15.85414063 -3.19265625 15.08328125 -4.2578125 14.2890625 C-6.64677357 12.29485853 -8.40433707 10.65389772 -10 8 C-9.8624874 5.18099161 -9.35530428 3.54230653 -7.8125 1.1875 C-5.03832987 -0.63005974 -3.2854379 -0.37525981 0 0 Z M21 31 C19.53014425 33.33447678 18.99285015 34.71400597 19.0625 37.5 C20.35197785 40.93860759 21.83625742 42.17205985 25 44 C28.10293293 44.24677006 28.10293293 44.24677006 31 43 C33.38388916 40.56391207 33.38388916 40.56391207 35 38 C31.33997803 34.94998169 25.92148529 31 21 31 Z " fill="#000000" transform="translate(222,132)"/>
<path d="M0 0 C1.875 1 1.875 1 3 3 C3.25714513 8.4061611 2.7268256 13.45368548 1.92970276 18.79621887 C-0.45058434 34.90371892 -0.18910511 50.78256555 0.13696289 67.02075195 C0.20287069 70.59323827 0.24502818 74.16542744 0.28515625 77.73828125 C0.31521255 78.82869217 0.34526886 79.91910309 0.37623596 81.04255676 C0.38622116 82.04598618 0.39620636 83.04941559 0.40649414 84.08325195 C0.4244252 84.9635054 0.44235626 85.84375885 0.46083069 86.75068665 C0 89 0 89 -1.86915588 90.77604675 C-4.57362425 92.3294888 -5.93207948 92.6135841 -9 92 C-11.68016241 89.91542924 -12.81095853 88.11692005 -13.38085938 84.74975586 C-14.14777501 74.94255832 -14.24038588 65.14461618 -14.25 55.3125 C-14.25167175 54.40969299 -14.25334351 53.50688599 -14.25506592 52.57672119 C-14.25907026 16.41514941 -14.25907026 16.41514941 -9 2 C-5.53076119 -0.31282587 -4.07794425 -0.42478586 0 0 Z " fill="#000000" transform="translate(296,271)"/>
<path d="M0 0 C2 2 2 2 2.484375 5 C2.31113445 10.4207528 -0.92515991 14.55733665 -3.75 19 C-4.95381353 20.96724778 -6.15290235 22.93739323 -7.34765625 24.91015625 C-7.95883301 25.91836426 -8.57000977 26.92657227 -9.19970703 27.96533203 C-17.17517579 41.40919922 -23.90209698 55.47257584 -29.87963867 69.90405273 C-30.26224854 70.82001221 -30.6448584 71.73597168 -31.0390625 72.6796875 C-31.37115723 73.49163574 -31.70325195 74.30358398 -32.04541016 75.14013672 C-33 77 -33 77 -35 78 C-39.05142119 78.25860135 -40.54337669 78.30441554 -44 76 C-47.04422874 67.86281986 -39.74827601 56.58837648 -36.3828125 49.1640625 C-12.2863022 -2.81561092 -12.2863022 -2.81561092 0 0 Z " fill="#000000" transform="translate(142,205)"/>
<path d="M0 0 C2.0625 1.625 2.0625 1.625 3 4 C2.92974155 7.44266385 2.60090824 9.28353249 0.375 11.9375 C-3.11319754 13.49800943 -5.36432898 12.99154664 -9 12 C-11 10.3125 -11 10.3125 -12 8 C-11.875 4.875 -11.875 4.875 -11 2 C-7.22278431 -0.51814379 -4.43706862 -0.73797399 0 0 Z " fill="#000000" transform="translate(370,182)"/>
</svg>
