<?xml version="1.0" standalone="no"?>
<!DOCTYPE svg PUBLIC "-//W3C//DTD SVG 20010904//EN"
 "http://www.w3.org/TR/2001/REC-SVG-20010904/DTD/svg10.dtd">
<svg version="1.0" xmlns="http://www.w3.org/2000/svg"
 width="1463.000000pt" height="1600.000000pt" viewBox="0 0 1463.000000 1600.000000"
 preserveAspectRatio="xMidYMid meet">

<g transform="translate(0.000000,1600.000000) scale(0.100000,-0.100000)"
fill="#000000" stroke="none">
<path d="M10865 15990 c-11 -5 -40 -9 -65 -9 -51 -1 -294 -33 -415 -55 -290
-52 -595 -151 -880 -286 -141 -66 -165 -86 -165 -134 0 -53 25 -72 145 -112
136 -44 328 -126 500 -211 151 -76 338 -183 331 -190 -3 -3 -35 6 -73 21 -75
28 -240 82 -348 114 -389 115 -760 192 -1278 265 l-98 13 -14 -30 c-17 -41
-81 -105 -113 -113 -44 -11 -74 9 -130 87 -29 41 -59 78 -65 82 -7 3 -123 14
-257 23 -476 33 -1244 3 -1675 -65 -33 -5 -121 -19 -195 -30 -257 -40 -654
-125 -915 -196 -104 -29 -120 -36 -120 -55 0 -10 -12 -13 -43 -11 -52 4 -102
-6 -102 -21 0 -6 9 -20 20 -32 18 -19 19 -23 5 -35 -12 -10 -18 -7 -32 19 -10
17 -24 33 -32 36 -14 6 -178 -41 -194 -55 -10 -8 28 -52 59 -68 30 -16 68 6
74 43 5 28 39 49 41 26 1 -6 2 -17 3 -23 5 -31 -17 -67 -51 -83 -47 -23 -79
-13 -130 41 -24 24 -49 44 -56 44 -21 0 -109 -34 -143 -55 -36 -23 -40 -61
-10 -94 16 -17 17 -23 6 -36 -12 -14 -16 -13 -41 11 -16 15 -32 43 -35 61 -7
37 -3 37 -89 4 -50 -19 -66 -43 -32 -49 10 -2 27 4 37 13 36 33 54 -4 20 -40
l-21 -22 47 -57 c42 -53 49 -57 83 -55 66 5 76 -18 20 -46 -45 -24 -73 -10
-126 61 -38 52 -53 64 -70 61 -13 -2 -24 1 -25 7 0 6 -2 16 -3 21 -2 6 -3 18
-4 27 0 10 -9 22 -20 27 -14 8 -45 -1 -137 -40 -455 -193 -780 -353 -1147
-563 -1247 -713 -2375 -1738 -2844 -2585 l-63 -113 0 -104 c0 -58 4 -106 10
-109 6 -3 10 -20 10 -36 0 -16 11 -74 24 -128 55 -222 162 -409 332 -583 240
-245 548 -420 1009 -573 838 -278 1921 -409 3960 -480 237 -8 488 -17 558 -19
71 -3 131 -7 134 -10 3 -3 -6 -20 -19 -38 -48 -63 -122 -219 -164 -347 -104
-316 -102 -759 3 -941 37 -64 81 -100 121 -100 48 0 66 13 100 72 16 29 60 97
97 151 313 450 793 844 1280 1050 250 105 232 102 520 88 1014 -50 1500 -105
2040 -230 72 -17 144 -34 160 -40 17 -5 66 -19 110 -31 324 -89 683 -235 980
-399 98 -54 333 -214 435 -295 105 -85 275 -249 353 -341 55 -65 104 -163 132
-265 27 -96 26 -288 -3 -395 -59 -225 -194 -434 -342 -531 -97 -64 -110 -78
-110 -119 0 -26 7 -43 26 -60 15 -14 30 -25 33 -25 4 0 85 -16 181 -36 154
-32 193 -37 330 -38 127 -1 165 2 213 18 31 10 60 16 63 13 8 -8 -14 -198 -37
-309 -40 -203 -130 -426 -236 -588 -104 -158 -337 -415 -506 -559 -71 -60
-191 -150 -277 -207 -81 -53 -321 -177 -373 -193 -18 -5 -57 -19 -87 -30 -177
-64 -340 -91 -545 -92 -278 0 -485 56 -693 188 -29 18 -57 33 -62 33 -23 0 -7
-41 38 -101 68 -89 75 -104 57 -119 -19 -16 -30 -7 -62 48 -15 26 -51 82 -80
126 -30 43 -55 83 -56 90 -1 6 -10 17 -20 24 -10 8 -16 21 -13 30 3 11 -13 36
-44 70 -81 86 -122 146 -245 362 -258 453 -497 765 -749 979 -74 63 -87 70
-114 65 -33 -7 -36 -4 -92 74 -37 52 -124 109 -295 195 -204 102 -342 153
-590 217 -378 98 -763 144 -1300 156 -296 7 -300 6 -327 -15 -60 -48 -41 -132
35 -151 490 -128 902 -457 1308 -1045 275 -398 542 -976 655 -1420 35 -136 17
-382 -42 -594 -198 -708 -771 -1482 -1513 -2044 -348 -264 -670 -454 -1086
-641 -105 -47 -108 -49 -124 -78 -17 -29 -9 -70 19 -98 20 -20 9 -20 -2550
-20 l-2570 0 0 -500 0 -500 7315 0 7315 0 0 500 0 500 -4657 2 c-2562 1 -4638
3 -4613 5 127 9 309 25 343 30 28 4 37 10 37 25 0 14 5 18 16 14 9 -3 18 -6
20 -6 2 0 4 -7 4 -15 0 -11 7 -14 23 -11 12 3 60 10 107 16 799 106 1295 251
1795 525 538 295 1071 802 1702 1623 l110 142 319 4 c380 4 622 27 909 86 55
11 114 23 130 27 146 28 451 126 655 210 441 181 930 516 1232 846 128 139
148 164 230 272 239 317 412 657 523 1030 85 284 119 518 119 815 0 344 -53
659 -167 980 -68 193 -109 274 -173 340 -31 32 -53 64 -49 70 3 5 10 8 14 5
15 -9 6 30 -18 75 -45 85 -184 285 -285 409 -486 599 -1224 1052 -2146 1317
-537 155 -1114 248 -1905 308 -714 55 -1161 66 -2870 76 -934 5 -1517 13
-1600 20 -120 10 -132 13 -159 38 -49 47 -115 139 -146 204 -38 80 -42 185
-10 249 105 205 465 349 1074 430 105 14 136 35 136 93 0 58 -39 81 -157 95
-401 45 -697 64 -943 59 -162 -3 -165 -3 -168 -25 -7 -50 -112 -90 -112 -43 0
13 7 20 19 20 33 0 51 11 51 31 0 23 -12 23 -166 8 -628 -60 -961 -250 -1007
-574 -9 -61 -8 -87 6 -151 18 -84 59 -179 107 -251 17 -25 29 -48 26 -51 -13
-13 -394 60 -650 124 -504 127 -957 349 -1246 613 l-55 51 66 62 c342 328
1378 799 2424 1101 279 81 390 110 745 196 198 48 662 142 870 176 84 14 112
23 142 46 33 26 59 25 43 -1 -7 -11 24 -14 48 -4 13 5 13 9 -1 33 -15 26 -15
30 1 55 12 18 26 26 47 26 39 0 41 -27 3 -32 -20 -2 -28 -9 -28 -23 0 -14 6
-19 20 -17 11 2 35 6 53 9 23 4 39 0 51 -11 17 -16 28 -15 157 3 450 64 647
84 839 85 141 1 179 -2 225 -18 107 -36 164 -70 236 -141 97 -97 156 -217 196
-400 18 -86 15 -332 -5 -422 -18 -81 -13 -111 25 -137 52 -37 114 -8 183 85
130 177 201 451 199 779 0 173 -13 275 -49 410 -8 30 -13 55 -12 56 5 6 24
-13 74 -71 236 -278 348 -728 297 -1196 -6 -53 -5 -56 26 -82 38 -33 62 -34
107 -6 78 48 169 205 218 374 31 109 65 309 65 385 -1 133 -59 450 -133 718
-18 67 -30 122 -24 122 5 0 44 -36 88 -81 237 -242 383 -596 434 -1054 18
-156 19 -400 4 -495 -10 -61 -10 -72 5 -95 21 -31 61 -48 96 -40 14 4 50 33
82 64 123 127 207 381 229 691 10 147 -1 329 -26 440 -8 36 -21 94 -29 130
-36 159 -188 492 -282 617 -51 68 -18 51 97 -50 132 -116 341 -367 499 -602
71 -105 99 -135 127 -135 48 0 371 -50 583 -90 391 -74 970 -267 1323 -441 42
-21 77 -35 77 -32 0 3 -23 37 -51 75 -41 54 -49 72 -40 81 10 9 23 0 59 -43
88 -102 100 -115 106 -110 2 3 6 38 7 78 2 55 6 75 21 88 17 17 18 14 18 -60
0 -70 2 -77 23 -85 23 -9 94 -20 137 -20 22 -1 23 -2 9 -17 -18 -17 -54 -20
-115 -10 -30 5 -44 3 -53 -7 -17 -21 0 -35 122 -104 950 -534 1731 -1377 2277
-2458 105 -207 270 -576 270 -602 0 -6 10 -22 21 -37 l21 -27 15 21 c12 17 18
19 29 9 13 -10 12 -14 -2 -30 -9 -10 -20 -16 -25 -13 -24 14 6 -45 46 -92 44
-51 82 -73 103 -60 5 3 16 -1 23 -10 11 -14 10 -18 -6 -30 -33 -24 -73 -17
-106 18 -16 18 -29 30 -29 26 0 -3 22 -72 49 -154 99 -296 175 -597 235 -924
l14 -75 1 195 c1 336 -49 998 -105 1380 -69 471 -118 709 -250 1230 -19 74
-103 346 -151 490 -150 445 -360 925 -568 1295 -34 61 -77 137 -95 170 -114
203 -334 534 -517 777 -256 338 -428 535 -765 871 -256 256 -268 269 -268 305
0 122 233 312 670 549 41 23 210 109 375 193 406 206 455 241 455 319 0 52
-18 72 -136 150 -185 123 -377 212 -643 300 -159 53 -181 58 -181 41 0 -23
-41 -50 -75 -50 -28 0 -35 4 -35 20 0 15 7 20 29 20 36 0 50 18 28 35 -15 11
-120 34 -312 70 -44 8 -145 21 -225 30 -80 9 -164 20 -188 26 -53 11 -780 11
-807 -1z m-2879 -620 c15 -22 29 -40 31 -40 2 0 21 11 41 25 72 49 99 37 194
-84 74 -93 72 -88 50 -100 -16 -9 -27 1 -82 75 -41 54 -72 87 -88 91 -32 8
-76 -16 -80 -43 -3 -20 47 -92 111 -161 19 -20 27 -38 23 -48 -3 -9 -10 -15
-15 -13 -12 4 -190 231 -224 284 -14 23 -23 45 -20 48 15 15 35 3 59 -34z
m-32 -125 c4 -11 -3 -19 -22 -26 -60 -23 -78 -61 -43 -93 18 -16 21 -16 65 6
47 22 47 22 83 3 49 -27 67 -57 59 -99 -7 -39 -27 -59 -78 -80 -32 -14 -37
-14 -42 0 -10 26 -7 29 33 47 22 10 42 25 45 34 17 44 -30 78 -79 57 -50 -22
-91 -17 -120 13 -43 47 -27 100 40 136 38 21 51 21 59 2z m-3343 -325 c23 -13
49 -61 49 -93 0 -32 -55 -74 -76 -56 -13 10 -12 15 6 34 26 27 25 53 -1 81
-12 12 -18 27 -14 33 8 14 11 14 36 1z m-433 -224 c-82 -52 -89 -58 -86 -79 4
-29 45 -34 102 -12 51 20 83 13 96 -20 20 -52 -17 -111 -90 -145 -43 -20 -53
-22 -60 -10 -6 10 4 20 42 39 60 31 80 56 67 89 -10 27 -28 28 -79 2 -22 -11
-47 -20 -57 -20 -30 0 -63 29 -63 56 0 68 97 160 123 116 5 -7 7 -14 5 -16z
m-180 -120 c-8 -6 -22 -23 -32 -38 -18 -28 -18 -28 32 -110 44 -73 49 -85 36
-98 -10 -10 -17 -11 -22 -5 -4 6 -26 38 -48 70 -51 74 -61 113 -40 154 22 42
55 64 74 49 12 -10 12 -13 0 -22z m6692 -70 c0 -21 -6 -25 -32 -28 -27 -2 -35
-9 -43 -35 -6 -22 -15 -33 -27 -33 -38 0 -12 81 33 106 40 22 69 18 69 -10z
m-6846 -62 c9 -3 25 -22 37 -41 l22 -36 -29 -21 c-93 -68 -117 -108 -71 -125
28 -11 68 9 86 42 13 25 51 44 51 26 0 -43 -61 -101 -118 -114 -42 -9 -69 9
-111 71 -45 68 -41 96 18 155 47 48 75 58 115 43z m6906 -59 c0 -37 -27 -84
-54 -95 -30 -11 -66 -2 -66 16 0 15 6 18 53 28 18 4 27 13 27 25 0 30 11 51
26 51 8 0 14 -10 14 -25z m-7210 -120 c6 -4 22 1 37 10 19 13 28 14 37 5 8 -9
5 -16 -11 -30 -31 -25 -29 -35 17 -91 47 -55 74 -68 98 -46 15 14 19 14 37 1
20 -15 20 -15 -5 -34 -14 -11 -41 -20 -60 -20 -31 0 -44 9 -97 63 l-61 63 -41
-29 c-22 -15 -41 -33 -41 -40 0 -7 24 -38 54 -71 52 -56 56 -58 90 -52 45 9
62 0 44 -21 -34 -41 -106 -31 -142 20 -38 55 -85 99 -99 94 -16 -6 -32 18 -28
41 1 7 -7 25 -19 41 -18 27 -19 61 0 61 4 0 20 -16 34 -35 30 -38 34 -38 91
10 30 24 30 24 12 55 -14 24 -16 34 -7 51 12 21 12 21 30 -9 10 -16 23 -33 30
-37z m-96 -323 l70 -73 -19 -35 c-20 -37 -60 -64 -94 -64 -35 0 -65 20 -108
73 -24 29 -59 71 -80 95 -30 35 -34 45 -22 53 9 6 18 3 27 -9 7 -9 29 -35 50
-57 21 -22 50 -57 65 -77 22 -30 35 -38 59 -38 32 0 68 24 68 45 0 13 -33 54
-107 137 -29 32 -53 64 -53 71 0 30 16 26 45 -10 16 -21 61 -71 99 -111z
m-386 -64 c15 18 41 35 58 38 33 6 59 -14 148 -116 22 -25 49 -55 60 -68 17
-20 18 -24 6 -32 -16 -10 -14 -12 -112 101 -74 85 -114 96 -143 38 -15 -28
-14 -30 23 -71 37 -42 92 -112 105 -134 4 -7 1 -17 -7 -23 -11 -9 -23 1 -59
52 -25 34 -84 102 -132 150 -75 75 -86 89 -75 102 12 14 18 11 57 -27 l43 -42
28 32z m-84 -124 c4 -9 5 -18 4 -19 -2 -1 -20 -12 -40 -24 -41 -25 -56 -54
-38 -76 17 -20 39 -19 75 5 42 28 86 26 115 -5 22 -23 22 -28 11 -65 -10 -34
-23 -48 -73 -81 -34 -21 -62 -38 -64 -37 -1 2 -4 11 -6 21 -2 13 11 25 47 45
39 21 51 33 53 55 7 55 -25 65 -77 25 -33 -25 -97 -24 -111 1 -26 50 -2 118
55 152 37 23 41 23 49 3z m3366 -244 c0 -5 -9 -10 -20 -10 -12 0 -20 -7 -20
-16 0 -12 8 -15 35 -11 37 5 65 -12 65 -38 0 -17 -38 -45 -62 -45 -26 0 -22
18 4 22 13 2 24 11 26 20 3 14 -4 17 -38 15 -54 -3 -74 21 -46 52 20 22 56 29
56 11z m-89 -70 c27 -15 24 -29 -13 -61 -24 -20 -30 -30 -22 -39 14 -14 42 -3
49 21 7 22 25 26 25 5 0 -19 -47 -56 -71 -56 -23 0 -59 46 -59 76 0 12 12 32
26 43 30 24 38 25 65 11z m-126 -96 c49 -71 57 -89 38 -89 -16 0 -114 135
-107 147 11 17 24 6 69 -58z m-34 -76 c32 -35 37 -58 14 -58 -8 0 -19 -8 -24
-19 -14 -25 -40 -34 -57 -20 -21 17 -17 43 11 69 19 18 22 26 13 32 -23 14
-38 8 -44 -18 -6 -24 -8 -25 -17 -9 -8 15 -5 22 13 37 32 26 57 22 91 -14z
m-137 -69 c3 -17 6 -45 6 -62 0 -29 1 -30 19 -13 36 33 42 11 7 -23 -19 -18
-39 -30 -45 -27 -6 4 -11 29 -11 57 0 53 -1 54 -31 39 -37 -21 -43 2 -8 31 44
37 55 36 63 -2z m-74 -101 c41 -45 46 -53 31 -62 -4 -3 -25 12 -45 34 -36 40
-59 49 -71 30 -7 -11 17 -61 39 -79 18 -15 21 -41 6 -41 -5 0 -28 23 -50 51
l-41 52 33 28 c18 16 39 28 46 29 7 0 31 -19 52 -42z m-114 -94 c23 -29 26
-40 18 -62 -5 -15 -21 -31 -37 -36 -23 -8 -31 -6 -57 19 -39 37 -45 60 -26 90
25 38 68 34 102 -11z m6574 6 c0 -15 -7 -20 -24 -20 -30 0 -41 -16 -37 -52 2
-23 -2 -28 -18 -28 -18 0 -21 6 -21 41 0 61 14 79 60 79 33 0 40 -3 40 -20z
m-6743 -44 c-2 -6 -17 -13 -33 -16 -39 -7 -40 -28 -4 -78 34 -47 49 -51 75
-22 22 24 13 54 -15 47 -29 -7 -34 9 -8 27 16 12 25 13 35 4 24 -19 35 -49 29
-74 -7 -28 -59 -58 -86 -49 -28 9 -90 90 -90 118 0 24 22 50 50 59 22 7 51 -3
47 -16z m6833 -94 c0 -50 -26 -75 -71 -70 -23 2 -35 9 -37 21 -3 14 4 17 32
17 34 0 36 2 36 35 0 28 4 35 20 35 17 0 20 -7 20 -38z m-11805 -1371 c-4 -13
-16 -21 -38 -23 -29 -3 -32 -6 -35 -40 -3 -33 -6 -38 -29 -38 -19 0 -24 4 -19
16 3 9 6 24 6 34 0 31 34 62 76 69 47 9 48 8 39 -18z m65 -126 c0 -46 -37 -85
-80 -85 -23 0 -30 4 -30 20 0 13 7 20 19 20 38 0 51 11 51 46 0 27 4 34 20 34
16 0 20 -7 20 -35z m13774 -2372 c5 -11 -2 -24 -21 -39 l-27 -22 28 -37 c23
-30 26 -39 15 -46 -20 -12 -21 -12 -48 23 -33 41 -33 94 -2 119 29 23 47 24
55 2z m-1430 -1092 l39 -40 31 34 c62 66 101 57 204 -47 61 -62 62 -65 44 -81
-18 -17 -21 -16 -54 25 -20 24 -47 55 -61 71 -35 37 -75 36 -112 -3 -25 -26
-27 -31 -14 -49 106 -146 110 -153 98 -167 -6 -8 -14 -14 -18 -14 -4 0 -29 32
-56 71 -28 39 -76 105 -108 145 -51 66 -63 94 -38 94 4 0 24 -18 45 -39z m-31
-135 c4 -9 -3 -16 -17 -20 -34 -8 -76 -45 -76 -66 0 -36 26 -44 76 -25 57 22
91 22 111 2 35 -35 1 -119 -61 -150 -79 -40 -76 -39 -76 -17 0 13 11 24 33 34
42 18 80 59 75 83 -4 24 -48 29 -87 9 -41 -22 -67 -20 -91 6 -40 43 -18 117
44 144 40 17 63 17 69 0z m-4666 -1261 c12 -8 31 -31 43 -50 19 -31 20 -40 10
-64 -11 -28 -60 -71 -80 -71 -10 0 -105 139 -98 144 24 19 85 56 93 56 6 0 20
-7 32 -15z m1306 -1687 c2 -7 -14 -22 -36 -33 -51 -25 -66 -47 -47 -70 14 -17
20 -17 118 1 26 5 38 2 58 -17 48 -45 20 -123 -56 -153 -53 -21 -70 -20 -70 3
0 13 9 20 30 25 37 7 83 50 78 73 -5 28 -34 39 -71 25 -54 -20 -103 -15 -121
10 -31 44 -15 90 44 131 29 20 66 22 73 5z m-2285 -2170 c2 -12 -5 -17 -29
-20 -27 -2 -34 -9 -44 -38 -14 -43 -45 -54 -45 -16 0 36 19 72 44 85 30 15 70
9 74 -11z m65 -140 c-9 -52 -21 -67 -57 -74 -38 -7 -56 0 -56 21 0 8 13 15 33
17 26 2 34 9 42 36 6 20 15 32 27 32 14 0 16 -6 11 -32z m-1725 -1340 c2 -12
-5 -17 -30 -20 -30 -3 -33 -6 -36 -40 -3 -41 -3 -41 -26 -32 -24 9 -21 69 5
95 25 25 82 23 87 -3z m-4838 -504 l0 -56 34 6 c41 8 92 -11 121 -44 17 -19
21 -39 24 -141 l3 -119 -36 0 -36 0 0 104 c0 121 -9 139 -69 134 l-36 -3 -3
-117 -3 -118 -34 0 -35 0 0 205 0 205 35 0 35 0 0 -56z m630 -54 l49 0 3 37
c2 30 9 41 36 56 l32 19 0 -56 0 -56 41 0 c39 0 40 -1 37 -32 -3 -30 -6 -33
-40 -36 l-38 -3 0 -62 c0 -69 18 -107 51 -107 14 0 19 -7 19 -30 0 -28 -2 -30
-39 -30 -27 0 -49 7 -67 24 -26 21 -28 30 -32 115 l-4 91 -49 0 -49 0 0 -69
c0 -74 14 -101 51 -101 14 0 19 -7 19 -30 0 -28 -2 -30 -39 -30 -28 0 -49 7
-68 24 -26 23 -28 30 -31 115 -3 70 -7 91 -18 91 -9 0 -14 12 -14 35 0 24 5
35 15 35 11 0 15 11 15 38 0 33 4 40 33 54 l32 15 3 -53 3 -54 49 0z m1010 55
l0 -55 35 0 c33 0 35 -2 35 -35 0 -33 -2 -35 -35 -35 l-35 0 0 -76 c0 -75 0
-76 30 -87 23 -9 30 -17 30 -39 0 -26 -3 -28 -37 -28 -71 1 -93 37 -93 148 0
71 -2 80 -20 85 -15 4 -20 14 -20 36 0 24 4 31 20 31 16 0 20 7 20 38 0 30 5
40 28 54 15 9 30 17 35 17 4 1 7 -24 7 -54z m710 -56 l0 -111 47 56 c45 53 50
56 92 56 l45 0 -35 -37 c-19 -21 -47 -52 -62 -69 l-28 -31 61 -78 c33 -43 60
-79 60 -81 0 -2 -17 -4 -39 -4 -35 0 -42 5 -80 55 -23 31 -46 53 -52 50 -5 -4
-9 -28 -9 -56 l0 -49 -35 0 -35 0 0 205 0 205 35 0 35 0 0 -111z m9090 1 c0
-33 -4 -60 -10 -60 -11 0 -14 103 -3 113 12 12 13 8 13 -53z m72 23 l15 -38
16 38 c23 54 37 46 37 -23 0 -65 -19 -85 -21 -22 -1 37 -1 37 -12 10 -14 -36
-24 -35 -41 5 l-14 32 -1 -42 c-1 -67 -21 -51 -21 17 0 71 19 81 42 23z m167
-18 c24 -64 24 -65 11 -65 -5 0 -10 7 -10 15 0 10 -10 15 -30 15 -20 0 -30 -5
-30 -15 0 -8 -4 -15 -10 -15 -5 0 -10 4 -10 9 0 17 43 111 51 111 4 0 17 -25
28 -55z m115 49 c27 -10 18 -19 -21 -19 -34 0 -38 -3 -41 -28 -4 -33 13 -57
39 -57 22 0 27 35 7 43 -7 3 -3 6 10 6 20 1 23 -3 20 -26 -3 -24 -8 -29 -38
-31 -39 -4 -60 16 -60 57 0 45 40 72 84 55z m116 -4 c0 -5 -11 -10 -25 -10
-16 0 -25 -6 -25 -15 0 -9 9 -15 25 -15 14 0 25 -4 25 -10 0 -5 -11 -10 -25
-10 -18 0 -25 -5 -25 -19 0 -15 8 -21 33 -24 28 -3 26 -4 -10 -5 l-43 -2 0 60
0 60 35 0 c19 0 35 -4 35 -10z m100 -50 c0 -33 -4 -60 -10 -60 -6 0 -10 27
-10 60 0 33 4 60 10 60 6 0 10 -27 10 -60z m108 44 c47 -33 17 -104 -45 -104
l-33 0 0 60 c0 59 0 60 28 60 15 0 38 -7 50 -16z m216 -6 c8 -14 5 -23 -17
-46 -34 -35 -34 -40 1 -45 18 -3 13 -4 -17 -6 l-43 -1 31 35 c43 50 41 72 -8
66 -7 -2 -10 3 -6 9 10 16 46 8 59 -12z m92 14 c7 -4 11 -29 10 -57 -1 -49 -2
-50 -33 -53 -18 -2 -33 1 -33 6 0 5 11 7 24 5 33 -7 44 16 18 38 l-21 17 21 5
c17 5 19 9 9 20 -7 9 -21 13 -33 9 -14 -3 -19 -1 -14 6 8 13 35 15 52 4z m92
-48 c2 -27 9 -52 15 -56 7 -4 -6 -7 -28 -7 -22 1 -32 3 -22 6 13 3 17 15 17
49 0 35 -3 44 -17 44 -15 0 -16 2 -3 10 26 16 35 5 38 -46z m102 2 c0 -34 5
-56 13 -59 6 -3 -4 -5 -23 -5 -19 0 -29 2 -22 5 7 3 12 23 12 49 0 28 -4 44
-12 44 -9 0 -8 4 2 10 26 17 30 11 30 -44z m104 48 c22 -9 20 -47 -4 -69 -27
-24 -25 -33 8 -38 19 -3 14 -4 -15 -6 -24 0 -43 3 -43 7 0 5 14 21 30 37 45
43 40 60 -15 56 -17 -2 -17 0 -5 8 18 12 23 13 44 5z m100 0 c22 -9 20 -47 -4
-69 -27 -24 -25 -33 8 -38 19 -3 14 -4 -15 -6 -24 0 -43 3 -43 7 0 5 14 21 30
37 45 43 40 60 -15 56 -17 -2 -17 0 -5 8 18 12 23 13 44 5z m113 -6 c6 -7 10
-33 9 -58 -1 -39 -4 -45 -24 -48 -30 -4 -55 16 -46 37 4 9 6 27 5 40 -2 36 35
55 56 29z m113 2 c0 -6 -6 -10 -12 -9 -25 3 -36 -1 -42 -17 -4 -11 -1 -14 13
-9 11 3 26 -1 35 -10 19 -19 19 -21 6 -46 -12 -21 -40 -25 -58 -7 -19 19 -15
85 6 97 22 14 52 14 52 1z m100 -4 c0 -21 -40 -110 -46 -103 -3 2 2 22 10 42
21 50 20 55 -9 55 -14 0 -25 5 -25 10 0 6 16 10 35 10 24 0 35 -5 35 -14z m90
4 c0 -5 -9 -10 -20 -10 -27 0 -25 -13 3 -25 16 -7 22 -18 22 -40 0 -27 -4 -30
-32 -33 -18 -2 -33 1 -33 5 0 5 12 9 28 8 37 0 39 37 2 45 -23 5 -27 13 -21
53 2 11 51 8 51 -3z m-13358 -61 c14 -8 15 -14 7 -39 -9 -26 -13 -28 -35 -19
-38 14 -80 11 -95 -7 -11 -14 -11 -18 4 -29 10 -7 35 -15 57 -19 96 -15 119
-117 38 -166 -37 -22 -107 -26 -157 -9 -33 12 -34 13 -22 44 7 17 17 20 82 20
67 0 74 2 74 20 0 19 -16 27 -76 40 -48 9 -74 39 -74 83 0 47 24 78 69 91 33
10 100 5 128 -10z m1131 10 c51 -14 77 -57 77 -126 l0 -53 -85 0 c-76 0 -85
-2 -85 -19 0 -39 34 -48 105 -27 11 3 29 -1 40 -9 19 -15 19 -16 -8 -43 -24
-23 -35 -27 -88 -27 -56 0 -63 3 -90 33 -27 31 -29 37 -29 121 0 100 16 133
73 150 43 12 46 12 90 0z m265 -26 c3 -31 1 -33 -27 -33 -49 0 -61 -29 -61
-142 l0 -98 -30 0 -30 0 0 123 c0 122 0 124 28 149 29 28 53 37 92 35 21 -2
26 -8 28 -34z m182 26 c54 -11 56 -15 39 -53 -10 -21 -15 -23 -36 -15 -37 14
-79 11 -94 -7 -11 -14 -11 -18 4 -29 10 -7 35 -15 56 -19 52 -8 80 -33 87 -77
12 -74 -74 -125 -178 -105 -52 10 -61 19 -48 48 11 23 16 24 83 24 60 -1 72 2
75 16 4 19 -12 28 -86 48 -34 9 -46 18 -60 46 -16 34 -15 37 3 72 14 25 31 41
55 49 44 15 40 15 100 2z m712 1 c33 -10 78 -50 78 -70 0 -5 -13 -13 -29 -18
-23 -8 -31 -7 -45 9 -19 23 -59 25 -80 3 -19 -19 -22 -134 -4 -152 17 -17 68
-15 89 3 20 19 69 10 69 -12 0 -43 -85 -82 -153 -69 -58 11 -81 46 -85 131 -6
111 18 161 83 178 32 8 38 7 77 -3z m446 -16 c2 -11 -4 -26 -12 -33 -31 -26
-71 14 -45 45 17 21 53 14 57 -12z m-2338 -99 c0 -105 2 -115 20 -125 12 -6
33 -10 48 -8 l27 3 3 123 3 122 34 0 35 0 0 -143 0 -144 -39 -11 c-82 -25
-162 -8 -186 39 -11 20 -15 61 -15 144 l0 115 35 0 35 0 0 -115z m1610 81 c0
-34 -1 -35 -42 -38 -43 -3 -43 -3 -46 -45 -3 -42 -4 -43 -39 -43 l-35 0 4 57
c6 75 36 103 109 103 l49 0 0 -34z m95 -163 c-1 -75 -29 -103 -102 -103 l-54
0 3 33 c3 29 6 32 43 37 39 5 40 6 43 48 3 42 4 43 35 40 32 -3 32 -4 32 -55z
m10190 -68 c16 0 20 -7 22 -40 l1 -40 -6 35 c-4 22 -13 35 -22 35 -9 0 -17
-13 -21 -35 -5 -27 -6 -22 -7 25 0 33 3 51 6 40 4 -11 16 -20 27 -20z m723 -8
l27 17 -19 -22 c-18 -21 -18 -23 -1 -42 10 -11 13 -20 8 -20 -6 0 -17 7 -24
16 -12 14 -14 14 -20 -3 -4 -10 -7 8 -7 42 1 33 3 45 5 28 l4 -33 27 17z
m-559 5 c-14 -5 -11 -60 4 -65 7 -4 6 -6 -4 -6 -12 -1 -18 10 -21 37 -6 49 -1
65 17 49 7 -7 9 -13 4 -15z m59 8 c15 -1 15 -2 0 -11 -10 -5 -18 -19 -18 -29
0 -10 8 -24 18 -30 15 -10 15 -10 -3 -8 -14 2 -22 13 -25 38 -6 36 0 75 8 52
2 -7 11 -12 20 -12z m270 0 c15 -1 15 -2 0 -11 -10 -5 -18 -19 -18 -29 0 -10
8 -24 18 -30 15 -10 15 -10 -3 -8 -14 2 -22 13 -25 38 -6 36 0 75 8 52 2 -7
11 -12 20 -12z m-966 -35 c4 -17 7 -16 18 10 l12 30 13 -29 12 -29 11 29 c6
16 11 21 11 12 1 -9 -4 -29 -10 -45 l-11 -28 -12 28 c-13 29 -26 27 -26 -5 0
-25 -17 -23 -25 5 -16 56 -17 62 -7 52 5 -5 12 -19 14 -30z m133 11 l13 29 13
-30 c12 -28 13 -29 16 -7 3 12 8 22 13 22 5 0 4 -15 -1 -32 -5 -18 -9 -34 -9
-35 0 -2 -4 -3 -9 -3 -5 0 -12 12 -16 28 l-7 27 -10 -27 c-9 -26 -28 -39 -28
-19 0 5 -2 24 -5 42 l-5 34 11 -29 12 -29 12 29z m97 -11 c4 -17 7 -16 18 10
l12 30 13 -29 12 -29 11 29 c6 16 11 21 11 12 1 -9 -4 -29 -10 -45 l-11 -28
-12 28 c-13 29 -26 27 -26 -5 0 -25 -17 -23 -25 5 -16 56 -17 62 -7 52 5 -5
12 -19 14 -30z m158 24 l-25 -10 27 -15 c34 -18 27 -45 -11 -43 -23 2 -24 2
-3 6 27 5 29 20 2 28 -35 11 -24 46 14 44 19 0 18 -1 -4 -10z m200 -29 c0 -37
-2 -40 -29 -40 -21 0 -30 6 -35 23 -8 32 -7 47 4 47 6 0 10 -13 10 -30 0 -19
5 -30 14 -30 15 0 26 21 26 51 0 10 2 19 5 19 3 0 5 -18 5 -40z m188 28 c17
-17 15 -28 -5 -28 -14 0 -15 2 -4 9 9 6 10 11 2 15 -17 11 -31 -3 -31 -30 0
-19 5 -24 28 -25 24 -2 24 -2 4 -6 -27 -5 -52 12 -52 36 0 19 19 41 35 41 6 0
16 -5 23 -12z m59 -6 c-8 -9 -17 -28 -20 -42 -3 -17 -5 -12 -6 15 -1 35 2 41
20 42 19 2 20 0 6 -15z m61 11 c-24 -6 -23 -17 5 -36 27 -19 12 -41 -24 -34
-22 4 -22 4 4 6 27 1 40 21 13 21 -7 0 -18 6 -25 13 -13 16 4 38 29 36 11 -1
11 -2 -2 -6z m152 -8 c20 -24 4 -65 -25 -65 -18 0 -26 7 -31 25 -7 27 9 55 31
55 7 0 18 -7 25 -15z m63 5 c-14 -6 -23 -18 -23 -30 0 -12 10 -25 23 -30 22
-10 22 -10 -3 -7 -19 1 -26 8 -28 31 -4 29 10 46 38 45 8 0 5 -4 -7 -9z m222
0 c3 -5 0 -8 -7 -5 -20 7 -40 -10 -36 -31 2 -10 14 -21 28 -26 23 -6 23 -7 -5
-5 -23 2 -31 7 -33 25 -6 38 36 70 53 42z m80 -30 c0 -31 -3 -35 -25 -35 -19
0 -26 6 -28 23 -5 36 5 54 30 50 19 -2 23 -9 23 -38z m133 27 c14 -10 16 -67
2 -67 -5 0 -10 16 -10 36 0 45 -24 42 -28 -4 -4 -40 -22 -32 -22 9 0 42 -23
33 -31 -12 l-6 -34 -2 37 c0 21 4 38 11 40 20 7 72 3 86 -5z m-1213 -57 c3 -5
1 -10 -4 -10 -6 0 -11 5 -11 10 0 6 2 10 4 10 3 0 8 -4 11 -10z m925 0 c0 -5
-4 -10 -10 -10 -5 0 -10 5 -10 10 0 6 5 10 10 10 6 0 10 -4 10 -10z"/>
<path d="M3775 14394 c-52 -27 -72 -78 -40 -104 12 -10 22 -6 57 21 54 42 59
49 48 70 -14 25 -34 29 -65 13z"/>
<path d="M6190 13400 c0 -22 20 -26 38 -8 19 19 14 28 -13 28 -18 0 -25 -5
-25 -20z"/>
<path d="M6044 13225 c-4 -8 -3 -22 0 -32 6 -14 8 -14 21 3 8 10 15 25 15 32
0 17 -29 15 -36 -3z"/>
<path d="M5693 13013 c-20 -8 -15 -38 11 -66 28 -31 56 -27 56 7 0 13 -10 32
-23 44 -25 23 -25 23 -44 15z"/>
<path d="M8265 6477 c-17 -13 -17 -16 14 -60 36 -53 53 -58 77 -22 16 24 15
27 -10 60 -29 37 -51 43 -81 22z"/>
<path d="M12500 643 c0 -6 -3 -18 -6 -27 -4 -12 0 -16 15 -16 12 0 21 4 21 8
0 13 -29 48 -30 35z"/>
<path d="M12920 616 c0 -49 11 -57 44 -33 12 9 17 23 14 42 -2 24 -8 31 -30
33 -27 3 -28 2 -28 -42z"/>
<path d="M13755 661 c-8 -15 3 -31 21 -31 9 0 14 7 12 17 -4 20 -24 28 -33 14z"/>
<path d="M13761 611 c-17 -11 -7 -41 13 -41 22 0 30 20 15 36 -9 8 -19 10 -28
5z"/>
<path d="M13860 594 c0 -33 33 -30 38 4 3 17 -2 22 -17 22 -16 0 -21 -6 -21
-26z"/>
<path d="M1792 548 c-7 -7 -12 -22 -12 -35 0 -21 4 -23 50 -23 46 0 50 2 50
23 0 30 -18 47 -50 47 -14 0 -31 -5 -38 -12z"/>
<path d="M3461 594 c0 -11 3 -14 6 -6 3 7 2 16 -1 19 -3 4 -6 -2 -5 -13z"/>
<path d="M13571 337 c-13 -17 -5 -47 14 -47 19 0 28 32 12 47 -12 12 -16 12
-26 0z"/>
<path d="M13934 336 c-8 -22 3 -49 19 -43 6 2 12 14 12 27 0 27 -22 39 -31 16z"/>
<path d="M8266 15421 c-4 -6 -3 -11 1 -11 5 0 16 -12 25 -27 27 -45 67 -83 88
-83 10 0 32 12 49 26 38 32 39 69 1 83 -41 16 -157 25 -164 12z"/>
<path d="M5458 12753 c6 -2 18 -2 25 0 6 3 1 5 -13 5 -14 0 -19 -2 -12 -5z"/>
<path d="M8445 6500 c3 -5 8 -10 11 -10 2 0 4 5 4 10 0 6 -5 10 -11 10 -5 0
-7 -4 -4 -10z"/>
<path d="M9690 4926 c0 -2 7 -6 15 -10 8 -3 15 -1 15 4 0 6 -7 10 -15 10 -8 0
-15 -2 -15 -4z"/>
</g>
</svg>
