<?xml version="1.0" encoding="UTF-8"?>
<svg version="1.1" xmlns="http://www.w3.org/2000/svg" width="512" height="512">
<path d="M0 0 C2.20263885 3.73575311 2.91932385 7.7498369 3.8125 11.9375 C6.48296483 23.70113028 9.7775886 33.91396552 18 43 C18.47566406 43.57878906 18.95132813 44.15757812 19.44140625 44.75390625 C30.03674186 56.67711682 49.84287607 66.74536872 65 71 C64.2678125 70.45601563 63.535625 69.91203125 62.78125 69.3515625 C53.74061942 61.70765856 45.43313271 48.97549248 44 37 C43.32011176 27.77443961 43.50575049 19.29959947 48 11 C48.66 10.67 49.32 10.34 50 10 C50.15855469 11.00417969 50.31710938 12.00835937 50.48046875 13.04296875 C54.51272921 37.21275988 65.62862924 55.84434233 85.69580078 70.21435547 C95.66946753 77.23347076 106.16754051 83.25886435 116.90478516 89.02246094 C125.21827348 93.48505614 132.27911894 98.3274706 139 105 C139.63421875 105.6084375 140.2684375 106.216875 140.921875 106.84375 C143.82901818 109.67371239 146.54974948 112.60589723 149.1875 115.6875 C165.2668521 134.21292804 187.46432794 152.23304618 212.640625 155.32421875 C223.59709308 155.95632268 233.7326468 152.41631764 244 149 C244.66225586 148.78102051 245.32451172 148.56204102 246.00683594 148.33642578 C272.42553751 139.31733076 296.52037633 122.97310913 319.03125 106.8125 C322.93402083 104.02152047 326.92527679 101.38002677 330.9375 98.75 C348.24328776 87.3214799 364.7943199 72.96813047 370 52 C370.59558618 48.52254521 371.10372718 45.05950912 371.5078125 41.5546875 C371.75144531 40.29011719 371.75144531 40.29011719 372 39 C372.66 38.67 373.32 38.34 374 38 C379.0051156 47.49631307 379.63185958 57.88288734 376.875 68.25 C373.42091761 77.93749618 368.13845282 85.66225028 361 93 C385.41612337 86.18483573 415.51433323 73.76508985 429 51 C434.33587268 41.40403542 436.96038693 30.72836474 439 20 C439.66 20 440.32 20 441 20 C445.97155536 31.2400382 446.55554254 44.41819208 442.24462891 56.03564453 C432.65347103 78.81530868 413.00643075 90.6584947 391 100 C418.62349767 93.526371 439.45817773 81.31962188 458.13671875 60.01953125 C459.05904297 59.01986328 459.05904297 59.01986328 460 58 C460.33 58 460.66 58 461 58 C461.8926547 69.43093934 458.25139896 79.16795902 451 88 C437.31281493 102.84424608 416.95421545 109.03829169 398 114 C430.52883744 110.46181875 430.52883744 110.46181875 460 97 C460.66 97 461.32 97 462 97 C459.83131227 105.67475092 454.34538551 111.55954255 446.984375 116.33984375 C433.5369723 123.82040153 419.0626419 125.90469249 404 128 C402.74340576 128.17789063 402.74340576 128.17789063 401.46142578 128.359375 C397.31187433 128.94310926 393.15979719 129.49335803 389 130 C404.28350568 132.58750096 419.53691138 133.98384375 435 135 C426.47770801 143.63630259 418.54811406 147.04014166 406.45751953 147.30371094 C398.09681612 147.33521453 390.23130029 146.53140471 382 145 C388.27 147.64 394.54 150.28 401 153 C401 153.66 401 154.32 401 155 C391.23220901 161.07773662 378.95006341 159.82501057 368 158 C368.721875 158.48210937 369.44375 158.96421875 370.1875 159.4609375 C371.115625 160.09257812 372.04375 160.72421875 373 161.375 C373.928125 162.00148437 374.85625 162.62796875 375.8125 163.2734375 C376.534375 163.84320313 377.25625 164.41296875 378 165 C378 165.66 378 166.32 378 167 C370.43382516 171.32352848 361.82513898 171.31594699 353.51953125 169.05078125 C347.01379364 166.63305696 340.9503263 163.55538884 335 160 C337.43588968 161.96034317 339.87398776 163.91792039 342.3125 165.875 C343.00279297 166.43058594 343.69308594 166.98617187 344.40429688 167.55859375 C345.07138672 168.09355469 345.73847656 168.62851562 346.42578125 169.1796875 C347.03848877 169.67194824 347.65119629 170.16420898 348.2824707 170.67138672 C349.80471765 171.84893724 351.39868446 172.93245631 353 174 C353 174.66 353 175.32 353 176 C346.96195429 179.95244055 341.36426909 182.77574552 334 182 C329.82983497 180.65271591 325.92233272 178.94768755 322 177 C324.31 179.31 326.62 181.62 329 184 C327 188 327 188 324.875 189.25 C317.08936511 191.28103519 311.93453538 189.59568501 305 186 C304.62875 187.1446875 304.62875 187.1446875 304.25 188.3125 C302.8478869 191.32704316 301.86077355 192.36527226 299 194 C296.25 194.6875 296.25 194.6875 294 195 C294.33 195.99 294.66 196.98 295 198 C295.77158795 204.52687516 294.91833416 208.70495383 291 214 C288.25 215.9375 288.25 215.9375 286 217 C286.0309375 216.00419922 286.0309375 216.00419922 286.0625 214.98828125 C286.04413776 209.55346422 286.04413776 209.55346422 283.15234375 205.22265625 C281.14175677 203.99928322 279.15889338 202.93437299 277 202 C276.67 202.99 276.34 203.98 276 205 C273.54195682 206.01371854 271.14721095 206.87025685 268.625 207.6875 C253.42886398 213.05775238 239.67201645 225.12821871 230 238 C233.79458346 242.49821483 237.72661197 246.76173688 241.9375 250.875 C248.04887133 256.92115853 253.88853185 263.3969466 258 271 C257.875 273.25 257.875 273.25 257 275 C252.52745503 276.49084832 248.47254497 276.49084832 244 275 C244.01160156 276.07121094 244.02320313 277.14242188 244.03515625 278.24609375 C244.04453299 279.64322743 244.05363331 281.04036299 244.0625 282.4375 C244.07087891 283.14455078 244.07925781 283.85160156 244.08789062 284.58007812 C244.09653588 286.38693559 244.05220011 288.19387603 244 290 C242.10114904 291.89885096 239.42752097 291.12367506 236.91015625 291.1328125 C235 291 235 291 233 290 C232.96261719 290.65226562 232.92523438 291.30453125 232.88671875 291.9765625 C232.49407134 297.1964634 232.14173844 301.62400717 229 306 C226.66015625 306.8671875 226.66015625 306.8671875 224 307 C221.76171875 305.56640625 221.76171875 305.56640625 219.6875 303.5625 C218.99011719 302.90378906 218.29273438 302.24507813 217.57421875 301.56640625 C217.05472656 301.04949219 216.53523437 300.53257812 216 300 C215.608125 301.258125 215.21625 302.51625 214.8125 303.8125 C212.96115906 309.40212552 210.51454474 314.68268207 208 320 C204.6673468 318.57904457 202.76393478 316.8834126 200.4375 314.125 C199.56931641 313.10792969 199.56931641 313.10792969 198.68359375 312.0703125 C197.06788799 310.08348175 195.5200601 308.06062859 194 306 C193.64808594 306.89460938 193.29617187 307.78921875 192.93359375 308.7109375 C189.80595793 316.3707871 186.59048206 323.74672883 181 330 C180.34 330 179.68 330 179 330 C176.08883742 323.74042512 173.33015139 317.49989597 171 311 C170.443125 311.83402344 169.88625 312.66804688 169.3125 313.52734375 C156.79551554 332.06816149 156.79551554 332.06816149 151 334 C150.10250178 330.9317362 149.88288232 328.20730024 149.90234375 325.015625 C149.90556641 324.08105469 149.90878906 323.14648438 149.91210938 322.18359375 C149.92048828 321.21550781 149.92886719 320.24742187 149.9375 319.25 C149.94426758 317.77466797 149.94426758 317.77466797 149.95117188 316.26953125 C149.96293517 313.84629209 149.97937316 311.42317727 150 309 C149.39414063 309.58007812 148.78828125 310.16015625 148.1640625 310.7578125 C133.96039604 324 133.96039604 324 128 324 C127.76047837 318.36375658 128.61720415 313.51426608 130 308.0625 C130.19078125 307.28326172 130.3815625 306.50402344 130.578125 305.70117188 C131.0449138 303.79900752 131.52145136 301.89923991 132 300 C131.27296875 300.39832031 130.5459375 300.79664063 129.796875 301.20703125 C122.66441102 304.96529112 115.8980519 307.40358525 108 309 C109.92821179 297.07553235 114.24417005 287.98192852 121 278 C119.64068359 278.88365234 119.64068359 278.88365234 118.25390625 279.78515625 C107.21844915 286.70662411 107.21844915 286.70662411 102.5 286.25 C100.44140625 285.76953125 100.44140625 285.76953125 98 285 C96.79214844 284.67386719 95.58429688 284.34773438 94.33984375 284.01171875 C90.87412843 283.06889138 87.43476482 282.0504615 84 281 C84 280.34 84 279.68 84 279 C84.81750732 278.56880859 85.63501465 278.13761719 86.47729492 277.69335938 C105.11229511 267.85443252 123.69911739 257.93606853 142.07006836 247.61010742 C143.91317485 246.59725122 145.77688058 245.62020278 147.66625977 244.6965332 C153.20537484 241.93967359 155.70372807 239.39913976 158.0625 233.6875 C158.35576172 233.04232422 158.64902344 232.39714844 158.95117188 231.73242188 C159.65898523 230.1659497 160.33323181 228.58437843 161 227 C160.360625 226.71125 159.72125 226.4225 159.0625 226.125 C157 225 157 225 156 223 C154.3603125 222.566875 154.3603125 222.566875 152.6875 222.125 C148.7271785 220.91676632 147.8264798 219.8264798 145 217 C142.99438533 216.14045086 140.98657552 215.45266537 138.90234375 214.80859375 C136.70429314 213.8743094 135.50551052 212.84319512 134 211 C134 210.34 134 209.68 134 209 C132.80375 208.773125 131.6075 208.54625 130.375 208.3125 C124.96134627 206.96386895 121.92190182 204.12071925 118.1875 200 C115.43988102 197.48789122 112.42812304 196.01912316 109.1484375 194.2890625 C107 193 107 193 104.6875 190.4375 C101.76911764 187.79059507 99.9748588 187.22883583 96.25 186.125 C90.88455479 184.50882321 87.56619716 182.32495493 83.34765625 178.7265625 C79.82559396 176.13629373 75.9347209 174.82212415 71.87890625 173.2578125 C66.87991976 171.07372342 62.83638612 167.83638612 59 164 C56.97094434 163.39358252 54.92638977 162.83843636 52.875 162.3125 C46.69085174 160.49363287 42.11312623 158.04510347 38 153 C38 152.34 38 151.68 38 151 C41.96 149.02 41.96 149.02 46 147 C45.26136719 147.08121094 44.52273437 147.16242188 43.76171875 147.24609375 C35.15744571 147.78181088 29.499402 145.73065552 23 140 C21.6953125 137.765625 21.6953125 137.765625 21 136 C28.34754883 130.20559157 36.16831069 127.62972567 45 125 C43.20369141 124.94392578 43.20369141 124.94392578 41.37109375 124.88671875 C9.12205844 123.67837855 9.12205844 123.67837855 -2.0078125 113.08984375 C-6 108.5684593 -6 108.5684593 -6 107 C-5.1234375 107.0721875 -4.246875 107.144375 -3.34375 107.21875 C9.1068535 108.12976977 21.52118079 108.10159359 34 108 C33.28046143 107.87471924 32.56092285 107.74943848 31.81958008 107.62036133 C-8.85141363 100.44197814 -8.85141363 100.44197814 -20 85 C-21.30078125 82.61328125 -21.30078125 82.61328125 -22.3125 80.3125 C-22.65925781 79.54550781 -23.00601562 78.77851563 -23.36328125 77.98828125 C-24 76 -24 76 -23 74 C-22.34515625 74.44730469 -21.6903125 74.89460938 -21.015625 75.35546875 C-5.06406295 85.92225209 13.02715974 90.53226067 32 92 C31.46221924 91.79431396 30.92443848 91.58862793 30.37036133 91.37670898 C-8.62787049 76.36906766 -8.62787049 76.36906766 -18 57 C-20.09519161 50.95387565 -21.16077994 45.40282482 -21 39 C-20.34 39 -19.68 39 -19 39 C-17.51953125 40.72265625 -17.51953125 40.72265625 -15.8125 43.0625 C-2.49041486 60.51715033 17.38854497 71.23788226 38 78 C38.66 78 39.32 78 40 78 C38.94941406 77.43152344 37.89882812 76.86304688 36.81640625 76.27734375 C29.08520212 72.04600193 21.62572478 67.87916424 15 62 C14.32839844 61.42121094 13.65679687 60.84242188 12.96484375 60.24609375 C1.8516977 49.98945222 -4.06190697 37.02726088 -5.00390625 22.08984375 C-4.99400134 14.25506228 -3.50046788 7.00093576 0 0 Z M35 93 C39 94 39 94 39 94 Z M224 157 C232.93702436 168.10719748 232.93702436 168.10719748 245.70385742 173.36303711 C246.66138916 173.4172583 247.6189209 173.47147949 248.60546875 173.52734375 C250.20551758 173.63272461 250.20551758 173.63272461 251.83789062 173.74023438 C254.05127225 173.87058513 256.26481454 173.9982388 258.47851562 174.12304688 C267.58576435 174.73019679 276.85021363 175.84785824 284 182 C285.46622373 184.07582219 286.77143522 186.17717314 288.01953125 188.390625 C288.34308594 188.92171875 288.66664063 189.4528125 289 190 C289.33 190 289.66 190 290 190 C289.96624554 182.70903706 288.18116756 178.16010591 283 173 C267.11445401 159.39175256 244.14744119 157.52811117 224 157 Z M277 184 C277.77030122 187.48809191 277.77030122 187.48809191 279 191 C282 192.33333333 282 192.33333333 285 191 C283.71700242 188.13792848 282.469364 185.9754912 280 184 C279.01 184 278.02 184 277 184 Z " fill="#333332" transform="translate(37,89)"/>
</svg>
