<?xml version="1.0" encoding="UTF-8"?>
<svg version="1.1" xmlns="http://www.w3.org/2000/svg" width="512" height="512">
<path d="M0 0 C27.83782783 0.52234335 51.56306153 10.59040448 71.1171875 30.54296875 C76.19975836 36.2994268 80.2880341 42.77496953 84.43359375 49.22265625 C87.94823609 54.53767217 90.5316239 57.98479343 96.5625 60.3125 C104.98197482 60.81864184 113.23472916 59.17062606 121.53515625 57.91015625 C141.45313216 55.00948015 161.32614309 53.95883199 181.44335938 53.99682617 C184.9287027 53.99999201 188.41319756 53.97637405 191.8984375 53.95117188 C244.75379529 53.80217175 310.01216255 65.71705077 350.6015625 102.234375 C353.3388352 105.13522973 354.51000614 107.13138813 354.6875 111.125 C351.57765867 119.93621709 341.0622162 124.24142304 333.17578125 128.17578125 C325.86907849 131.65596978 318.3463658 134.13894691 310.5625 136.3125 C309.80598145 136.5285791 309.04946289 136.7446582 308.27001953 136.96728516 C295.26028768 140.57640137 281.99250185 142.33207508 268.625 144 C267.80384705 144.10273224 266.98269409 144.20546448 266.13665771 144.31130981 C260.28431608 145.03447294 254.42614636 145.68826974 248.5625 146.3125 C247.25392532 146.45653763 247.25392532 146.45653763 245.91891479 146.60348511 C230.54302765 148.26408998 215.28656756 148.5944983 199.82836914 148.51831055 C196.00074574 148.50000357 192.17336594 148.49780228 188.34570312 148.49804688 C177.05540194 148.4809531 165.79947366 148.35156758 154.5234375 147.76171875 C146.87550139 147.36284651 139.39208424 147.26221578 131.75 147.9375 C130.68088379 148.02668701 129.61176758 148.11587402 128.51025391 148.20776367 C112.1029878 149.74181542 95.98329441 153.10628709 80.37890625 158.39453125 C77.5625 159.3125 77.5625 159.3125 75.5625 159.3125 C75.8925 160.9625 76.2225 162.6125 76.5625 164.3125 C82.53088923 163.69860854 88.08809901 162.49107667 93.875 160.9375 C103.69411049 158.39442102 113.5132894 156.64723875 123.5625 155.3125 C124.50609375 155.17972656 125.4496875 155.04695312 126.421875 154.91015625 C132.69660594 154.18076874 139.003294 154.21475705 145.3125 154.1875 C146.19333252 154.18274658 147.07416504 154.17799316 147.98168945 154.1730957 C153.15009355 154.18575991 158.25994445 154.41378142 163.4140625 154.80078125 C221.7824187 158.89835777 293.02927479 156.66584492 345.63671875 128.6328125 C348.5625 127.3125 348.5625 127.3125 352.5625 127.3125 C352.43875443 133.2522874 350.5849175 136.0506332 346.64453125 140.41796875 C337.02769931 149.16874453 323.82141004 152.2351608 311.44140625 154.9609375 C310.30500702 155.21208313 309.16860779 155.46322876 307.99777222 155.72198486 C288.16332059 160.00250678 268.15012341 163.44164693 248.1875 167.0625 C240.8528103 168.39292083 233.51876428 169.72669642 226.18629074 171.06928253 C223.27937651 171.59973748 220.37138123 172.12394523 217.46328735 172.64788818 C215.69112583 172.97165476 213.9190179 173.29571481 212.14697266 173.62011719 C210.94716263 173.83363579 210.94716263 173.83363579 209.72311401 174.0514679 C205.78664799 174.77895593 202.23235578 175.64113249 198.5625 177.3125 C198.8925 178.6325 199.2225 179.9525 199.5625 181.3125 C205.15280441 181.49835296 210.24235515 180.8068617 215.7253418 179.75537109 C216.61773056 179.58944458 217.51011932 179.42351807 218.42955017 179.25256348 C221.37480751 178.7032308 224.31825091 178.14477303 227.26171875 177.5859375 C229.33689565 177.19629632 231.41215872 176.80711384 233.48750305 176.41836548 C237.84846214 175.60008226 242.20858212 174.77750605 246.56811523 173.95166016 C252.0700565 172.90956118 257.57355991 171.87602424 263.07766533 170.84542465 C284.9623819 166.74532724 306.82672106 162.62060093 328.54768372 157.71450806 C330.5625 157.3125 330.5625 157.3125 332.5625 157.3125 C329.79739866 163.78721749 323.33953524 166.08680661 317.1875 168.8125 C288.6015915 180.1482913 255.17535376 184.98417942 224.77148438 188.78662109 C223.53205078 188.94340332 222.29261719 189.10018555 221.015625 189.26171875 C219.89833008 189.39280029 218.78103516 189.52388184 217.62988281 189.65893555 C213.716098 190.4928421 210.60217873 191.74799942 208.33984375 195.15234375 C208.06269531 195.84457031 207.78554688 196.53679687 207.5 197.25 C207.01466797 198.44496094 207.01466797 198.44496094 206.51953125 199.6640625 C205.50723032 202.46545038 204.5924651 205.2872082 203.6875 208.125 C198.63832682 223.54650567 189.62080005 235.64284677 178.5625 247.3125 C177.71816406 248.22128906 176.87382812 249.13007813 176.00390625 250.06640625 C159.02124856 267.78851202 129.79758204 285.84959746 104.21875 286.53515625 C100.5625 286.3125 100.5625 286.3125 98.5625 284.3125 C98.4375 281.125 98.4375 281.125 99.5625 277.3125 C101.06640625 275.82421875 101.06640625 275.82421875 103 274.3125 C112.41166695 266.73602392 117.74495422 255.33944345 122.59155273 244.53222656 C128.81796912 230.89892661 137.39244766 220.7270894 150.08105469 212.79248047 C167.74004024 202.09876599 167.74004024 202.09876599 178.4375 185.3125 C178.59067375 181.63632999 177.79857497 180.18745354 175.5625 177.3125 C171.22476295 174.4206753 167.65903882 174.62980713 162.5625 175.3125 C159.29435144 176.38723345 156.17872707 177.63627621 153.03125 179.0234375 C144.13786979 182.32840987 134.6344509 182.99191508 125.25 183.875 C124.56863983 183.93942291 123.88727966 184.00384583 123.18527222 184.07022095 C97.41251989 186.46158377 71.42758676 186.55284748 45.5625 186.3125 C45.2325 187.3025 44.9025 188.2925 44.5625 189.3125 C44.8925 189.9725 45.2225 190.6325 45.5625 191.3125 C51.99031092 192.32014824 58.34804892 192.47176886 64.84375 192.48046875 C66.28870346 192.48675293 66.28870346 192.48675293 67.7628479 192.49316406 C70.8627741 192.50289079 73.96256114 192.50296235 77.0625 192.5 C78.64801666 192.49959213 78.64801666 192.49959213 80.26556396 192.49917603 C95.79278737 192.48074915 111.13054297 192.17260196 126.5625 190.3125 C127.94695312 190.15974609 127.94695312 190.15974609 129.359375 190.00390625 C141.47465086 188.64846793 153.5284767 186.82951165 164.5625 181.3125 C166.56210012 181.272508 168.56297242 181.26903201 170.5625 181.3125 C171.5625 184.3125 171.5625 184.3125 170.625 187.1875 C165.67834301 194.68243483 157.22344557 196.93782784 148.796875 198.86279297 C132.26764494 202.18958949 115.36878532 203.47304448 98.5390625 203.4453125 C97.23528656 203.44626923 95.93151062 203.44722595 94.58822632 203.44821167 C91.84689122 203.44967342 89.10558904 203.4475844 86.36425781 203.44287109 C82.89308855 203.43718614 79.42199687 203.44045481 75.95083046 203.44644356 C72.58440202 203.45097829 69.21799313 203.44777921 65.8515625 203.4453125 C64.01496567 203.44834885 64.01496567 203.44834885 62.14126587 203.45144653 C54.96670614 203.43230492 47.87689914 203.1049365 40.72454834 202.54602051 C36.73733428 202.25156067 32.7663314 202.11897192 28.76953125 202.07421875 C28.01917603 202.0644249 27.2688208 202.05463104 26.49572754 202.04454041 C3.75158578 201.8021834 3.75158578 201.8021834 -18.4375 206.3125 C-19.89950316 206.71830065 -21.36174908 207.1232276 -22.82421875 207.52734375 C-37.24765496 211.73581507 -51.11276027 218.7335145 -63.4375 227.3125 C-63.07398437 227.78558594 -62.71046875 228.25867188 -62.3359375 228.74609375 C-51.376166 243.16240858 -42.31960239 258.49910128 -43.4375 277.3125 C-45.70220588 281.94485294 -45.70220588 281.94485294 -48.4375 283.3125 C-52.25386303 283.83291314 -53.98190002 283.60610887 -57.25 281.5 C-60.022814 278.95705659 -62.28524555 276.06426449 -64.625 273.125 C-72.35518813 263.50117518 -81.59173925 254.4453736 -93.4375 250.25 C-107.40034299 250.54089256 -120.76910714 260.39209423 -130.1015625 270.03125 C-132.0961719 271.94420872 -133.71555088 272.11807506 -136.4375 272.3125 C-139.37634893 271.56070144 -140.9332404 271.10051246 -142.58984375 268.51171875 C-145.45940122 261.06673784 -141.3396158 251.22687831 -138.4375 244.3125 C-132.55938042 232.68466637 -125.27950633 222.11068272 -112.6640625 217.2421875 C-107.57957904 215.77523569 -102.59806318 214.95193661 -97.3125 214.71875 C-94.73651226 214.16061932 -94.03438007 213.42589114 -92.4375 211.3125 C-91.29825238 208.92729044 -90.25381803 206.56550169 -89.25 204.125 C-80.49772529 183.62398788 -69.66217371 164.55259143 -55.4375 147.3125 C-54.97375977 146.74724609 -54.51001953 146.18199219 -54.03222656 145.59960938 C-34.96815171 122.49858614 -12.34447374 103.17928781 15.10546875 90.7734375 C16.52460571 90.12665039 16.52460571 90.12665039 17.97241211 89.46679688 C19.82477013 88.63241572 21.68609282 87.81757724 23.55688477 87.02539062 C29.43758144 84.38927374 32.06077438 82.31939063 34.5625 76.3125 C36.48691478 62.84159656 29.16479384 47.92219712 21.42578125 37.41015625 C19.20413161 34.64569518 16.90841242 31.97199462 14.5625 29.3125 C13.85222656 28.46945313 13.14195312 27.62640625 12.41015625 26.7578125 C7.41677516 20.96079503 2.0892354 16.3683001 -4.03125 11.83203125 C-7.05392747 8.66705241 -7.39685011 6.63663162 -7.4375 2.3125 C-4.81183873 -0.31316127 -3.66803635 0.01401797 0 0 Z " fill="#333332" transform="translate(150.4375,112.6875)"/>
</svg>
