<?xml version="1.0" encoding="UTF-8"?>
<svg version="1.1" xmlns="http://www.w3.org/2000/svg" width="512" height="512">
<path d="M0 0 C0.74705704 0.32843903 1.49411407 0.65687805 2.2638092 0.99526978 C3.45302223 1.53829239 3.45302223 1.53829239 4.66625977 2.09228516 C5.50519272 2.46501556 6.34412567 2.83774597 7.20848083 3.22177124 C9.00030257 4.0193554 10.7899491 4.82184129 12.57757568 5.62878418 C15.3820292 6.89232444 18.19398392 8.13757239 21.00854492 9.37841797 C28.56297708 12.71672007 36.10533983 16.05679476 43.51000977 19.71728516 C58.11093441 26.82177945 72.74407176 29.06910696 88.64175415 31.48835754 C143.59518043 40.02035797 200.16359095 67.42912864 233.59204102 113.08056641 C262.48390601 154.98868899 274.37124086 205.99510003 265.92016602 256.50634766 C263.00745453 270.04765538 257.12147013 280.21674617 245.92016602 288.50634766 C234.58784745 295.73392015 221.76198223 298.30310901 208.58276367 299.57714844 C207.71534861 299.66178911 206.84793354 299.74642979 205.95423317 299.83363533 C191.59886938 301.1594949 177.1868439 301.18915121 162.78100586 301.31640625 C159.10449233 301.35232668 155.43096333 301.42253581 151.75561523 301.52148438 C147.25823272 301.64224701 142.76365413 301.70337896 138.26472855 301.72275162 C136.5700937 301.73974561 134.87552306 301.77710017 133.18183517 301.83623886 C119.44101716 302.29137484 119.44101716 302.29137484 114.63287354 297.89117432 C111.12617916 294.07608358 107.58142415 289.79260227 106.92016602 284.50634766 C108.97703168 277.53819052 113.92876942 271.04476312 117.79516602 264.94384766 C118.28847412 264.13351074 118.78178223 263.32317383 119.29003906 262.48828125 C121.73532855 258.73482368 123.05448624 256.82887521 127.33813477 255.23291016 C131.87016482 255.57886665 134.58757101 257.03018895 138.35766602 259.44384766 C138.99381836 259.82992188 139.6299707 260.21599609 140.28540039 260.61376953 C141.84076629 261.56102245 143.38200902 262.53139933 144.92016602 263.50634766 C144.52442383 262.68392578 144.12868164 261.86150391 143.72094727 261.01416016 C143.22981445 259.89783203 142.73868164 258.78150391 142.23266602 257.63134766 C141.73379883 256.54080078 141.23493164 255.45025391 140.72094727 254.32666016 C139.59076213 248.93485008 141.11677239 245.60752344 142.92016602 240.50634766 C143.31928144 239.15078829 143.71088717 237.79300481 144.09667969 236.43359375 C152.60902067 207.01189849 152.60902067 207.01189849 163.0690918 200.63623047 C172.90728955 195.61758032 184.0604807 193.16819057 194.92016602 191.50634766 C195.64398972 191.39338348 196.36781342 191.28041931 197.11357117 191.16403198 C201.6998981 190.50941304 203.91920313 190.38981216 207.73266602 193.13134766 C208.6749707 193.78619141 209.61727539 194.44103516 210.58813477 195.11572266 C211.1132666 195.4940625 211.63839844 195.87240234 212.17944336 196.26220703 C214.09083209 197.62832722 216.02717108 198.95235307 217.97094727 200.27197266 C221.12616255 202.41461121 224.27409663 204.56726704 227.41625977 206.72900391 C233.79801993 211.11491031 240.20279335 215.46680415 246.60766602 219.81884766 C247.73674365 220.58625033 248.86581286 221.3536654 249.99487305 222.12109375 C252.63647137 223.91642288 255.27823083 225.71151429 257.92016602 227.50634766 C257.92016602 222.97675583 247.74318927 214.99168153 244.54516602 211.56884766 C243.93302246 210.91352051 243.32087891 210.25819336 242.69018555 209.58300781 C235.14143358 201.57796285 227.31330612 193.84638341 219.48901367 186.11206055 C218.9607196 185.58803146 218.43242554 185.06400238 217.88812256 184.52409363 C216.44230237 183.09022012 214.99358768 181.65926691 213.54467773 180.22851562 C210.83904562 177.42220882 208.37842207 174.52903041 205.92016602 171.50634766 C200.42369149 173.13783175 194.92856185 174.7737481 189.43457031 176.41357422 C187.57001432 176.96944669 185.70511236 177.52416017 183.83984375 178.07763672 C163.35595203 182.76602212 163.35595203 182.76602212 146.92016602 194.50634766 C144.05628573 200.420118 143.0985983 206.51899904 142.27954102 212.97509766 C140.57499384 224.24173876 134.66783862 231.49748051 126.60766602 239.19384766 C125.79104492 239.99628906 124.97442383 240.79873047 124.13305664 241.62548828 C119.82040215 245.83505143 115.4040537 249.88601454 110.84326172 253.82397461 C107.53840922 256.71514365 104.36054021 259.74013781 101.17016602 262.75634766 C94.47061151 269.06345964 87.71552901 275.30268974 80.92016602 281.50634766 C79.88983398 282.45254413 78.85989315 283.39916676 77.83032227 284.34619141 C77.31179688 284.82282227 76.79327148 285.29945313 76.2590332 285.79052734 C74.83986124 287.09529389 73.42101589 288.40041565 72.00219727 289.70556641 C71.51015808 290.13439621 71.0181189 290.56322601 70.51116943 291.00505066 C68.8382592 292.51673526 68.8382592 292.51673526 67.30426025 294.50239563 C63.26583767 298.99606618 59.90140542 300.95013379 53.7841301 301.35664654 C49.62528424 301.4603906 45.48068288 301.38913125 41.32250977 301.28759766 C39.51935854 301.27265616 37.71617459 301.26127816 35.91297913 301.2532959 C31.19227684 301.22291113 26.47357855 301.14447002 21.75366211 301.05566406 C16.92727767 300.97347475 12.10056584 300.93721417 7.27368164 300.89697266 C-2.17836542 300.81145919 -11.62893235 300.67512145 -21.07983398 300.50634766 C-20.12575188 299.06669487 -19.17053594 297.62779345 -18.21484375 296.18920898 C-17.68302994 295.38784012 -17.15121613 294.58647125 -16.60328674 293.76081848 C-14.84055221 291.15224822 -12.97954598 288.65567831 -11.01733398 286.19384766 C-10.38698242 285.39333984 -9.75663086 284.59283203 -9.10717773 283.76806641 C-3.16115677 277.13464418 3.34252839 274.55695038 12.14672852 274.06494141 C13.94586185 274.01133351 15.74544017 273.97107694 17.54516602 273.94384766 C26.48862383 273.97731385 26.48862383 273.97731385 34.92016602 271.50634766 C37.59768647 265.52445396 39.00038198 259.3684952 40.36547852 252.97900391 C40.58082245 251.99065048 40.79616638 251.00229706 41.01803589 249.98399353 C41.46960661 247.90459131 41.91821817 245.82454448 42.36401367 243.74389648 C43.04272087 240.58024518 43.73267908 237.41920102 44.42407227 234.25830078 C44.86354768 232.22784744 45.30237148 230.19725294 45.74047852 228.16650391 C46.04672653 226.76453514 46.04672653 226.76453514 46.35916138 225.33424377 C49.37574277 212.63157499 49.37574277 212.63157499 45.92016602 200.50634766 C36.93667721 187.12785971 20.58673222 178.31581406 6.92016602 170.50634766 C6.17669922 170.07966797 5.43323242 169.65298828 4.66723633 169.21337891 C-27.79924191 150.80674057 -75.24384036 131.46686777 -113.41577148 139.71728516 C-122.14740794 142.30348833 -128.95577985 145.91048179 -136.07983398 151.50634766 C-135.27690918 151.48540039 -134.47398437 151.46445312 -133.64672852 151.44287109 C-98.51215668 150.65355468 -65.39437937 156.24993057 -33.07983398 170.50634766 C-36.34881711 171.5960087 -37.2503041 171.42762014 -40.48217773 170.61572266 C-41.36292969 170.40206055 -42.24368164 170.18839844 -43.15112305 169.96826172 C-44.09697266 169.73333008 -45.04282227 169.49839844 -46.01733398 169.25634766 C-53.58854516 167.45296369 -61.12735355 165.88256661 -68.82983398 164.75634766 C-69.61350342 164.64129883 -70.39717285 164.52625 -71.20458984 164.40771484 C-91.26256377 161.58523026 -116.35425883 158.68929755 -134.07983398 170.50634766 C-131.51560094 171.361092 -129.66829233 171.71318194 -127.02099609 171.92358398 C-126.20325211 171.9908519 -125.38550812 172.05811981 -124.54298401 172.12742615 C-123.65666794 172.19704056 -122.77035187 172.26665497 -121.85717773 172.33837891 C-119.95007049 172.49589414 -118.04300833 172.653956 -116.13598633 172.8125 C-115.13670105 172.89473816 -114.13741577 172.97697632 -113.10784912 173.06170654 C-77.88735791 175.99216827 -43.72642043 181.31070101 -10.07983398 192.50634766 C-9.17990723 192.80234863 -8.27998047 193.09834961 -7.3527832 193.40332031 C30.38173559 205.96791724 30.38173559 205.96791724 37.92016602 213.50634766 C38.00792207 215.65193592 38.02711821 217.80039187 38.01782227 219.94775391 C38.01459961 221.25292969 38.01137695 222.55810547 38.00805664 223.90283203 C37.99970003 225.29150455 37.99123507 226.68017643 37.98266602 228.06884766 C37.97765268 229.46142421 37.97308948 230.85400247 37.96899414 232.24658203 C37.95716035 235.66654636 37.94067482 239.0864261 37.92016602 242.50634766 C33.93652937 241.22951279 30.11867575 239.78321806 26.29516602 238.08837891 C25.25875977 237.63914062 24.22235352 237.18990234 23.15454102 236.72705078 C20.99397942 235.78637149 18.83770213 234.83579161 16.68579102 233.87548828 C15.64938477 233.43011719 14.61297852 232.98474609 13.54516602 232.52587891 C12.60930664 232.11442627 11.67344727 231.70297363 10.70922852 231.27905273 C7.36044347 230.35127747 5.25748414 230.60573288 1.92016602 231.50634766 C-0.19236925 233.12249485 -1.96427807 234.64825645 -3.82983398 236.50634766 C-4.88404822 237.5146552 -5.93874278 238.52246077 -6.99389648 239.52978516 C-7.51371094 240.03348633 -8.03352539 240.5371875 -8.5690918 241.05615234 C-10.7340113 243.13430714 -12.96636219 245.13296432 -15.20483398 247.13134766 C-16.01436523 247.85837891 -16.82389648 248.58541016 -17.65795898 249.33447266 C-19.27254232 250.78238932 -20.88712565 252.23030599 -22.50170898 253.67822266 C-27.09431548 257.80279282 -31.66159985 261.95259736 -36.20483398 266.13134766 C-40.07621662 269.69136556 -43.98931314 273.19340634 -47.96264648 276.63916016 C-50.65955558 279.01761504 -53.30796365 281.44759221 -55.95483398 283.88134766 C-59.84195587 287.45351363 -63.73109918 291.02304209 -67.64233398 294.56884766 C-68.42737305 295.28169922 -69.21241211 295.99455078 -70.02124023 296.72900391 C-74.33500285 300.45340996 -77.28169538 300.78686836 -82.76416016 300.73339844 C-83.54488388 300.73369049 -84.3256076 300.73398254 -85.12998962 300.73428345 C-87.71104031 300.73288989 -90.29180246 300.71732758 -92.87280273 300.70166016 C-94.6621332 300.69793012 -96.45146571 300.6950831 -98.24079895 300.69308472 C-102.95085283 300.68544756 -107.66078342 300.66579835 -112.37078857 300.64367676 C-117.17678154 300.62322012 -121.98279441 300.61408339 -126.78881836 300.60400391 C-136.21921108 300.58255255 -145.64951228 300.54841558 -155.07983398 300.50634766 C-154.12575188 299.06669487 -153.17053594 297.62779345 -152.21484375 296.18920898 C-151.68302994 295.38784012 -151.15121613 294.58647125 -150.60328674 293.76081848 C-148.84055221 291.15224822 -146.97954598 288.65567831 -145.01733398 286.19384766 C-144.38698242 285.39333984 -143.75663086 284.59283203 -143.10717773 283.76806641 C-135.89757754 275.72498642 -128.28996578 274.24923922 -117.92553711 273.58056641 C-116.71833008 273.51482422 -115.51112305 273.44908203 -114.26733398 273.38134766 C-111.84395915 273.23617439 -109.42076826 273.08788676 -106.99780273 272.93603516 C-105.93327881 272.87657715 -104.86875488 272.81711914 -103.77197266 272.75585938 C-100.98252565 272.60020488 -100.98252565 272.60020488 -98.07983398 271.50634766 C-96.96965871 268.50071141 -96.96965871 268.50071141 -96.18530273 264.73681641 C-96.01991501 264.0291362 -95.85452728 263.32145599 -95.68412781 262.59233093 C-95.13645913 260.23310479 -94.60802952 257.87000354 -94.07983398 255.50634766 C-93.69878858 253.84418222 -93.31677409 252.18223866 -92.93383789 250.52050781 C-91.93766295 246.17817096 -90.9591397 241.832083 -89.98779297 237.48413086 C-89.38441451 234.78339996 -88.77825052 232.08330534 -88.17163086 229.38330078 C-87.78280133 227.64961217 -87.3941237 225.91588949 -87.00561523 224.18212891 C-86.82646072 223.38317703 -86.64730621 222.58422516 -86.46272278 221.76106262 C-83.65530287 210.13967641 -83.65530287 210.13967641 -85.01733398 198.44384766 C-90.92912406 190.02402543 -98.45761773 185.7180874 -108.07983398 182.50634766 C-109.17038086 182.13703125 -109.17038086 182.13703125 -110.28295898 181.76025391 C-135.16756377 174.87424686 -163.31994712 187.79102723 -186.27270508 196.5859375 C-195.81637323 199.7151451 -206.04925479 199.70827333 -215.34936523 195.89697266 C-222.87392501 192.0647219 -231.98525087 186.16077356 -236.07983398 178.50634766 C-235.62635975 175.03535926 -234.63050445 172.26295859 -233.04077148 169.16259766 C-232.42274658 167.92920654 -232.42274658 167.92920654 -231.79223633 166.67089844 C-231.35089355 165.79159668 -230.90955078 164.91229492 -230.45483398 164.00634766 C-223.50886441 149.71163617 -218.94685658 135.19955615 -215.15454102 119.79589844 C-210.27403884 99.98915937 -204.08946196 83.72043243 -189.51733398 68.81884766 C-186.85515517 65.98309846 -186.85515517 65.98309846 -185.76733398 62.38134766 C-186.00375029 59.99756491 -186.00375029 59.99756491 -187.07983398 56.50634766 C-189.23173272 45.02955441 -189.23173272 45.02955441 -186.76733398 39.63134766 C-185.07983398 37.50634766 -185.07983398 37.50634766 -182.07983398 35.50634766 C-174.78849576 35.23629809 -169.9796058 38.77117135 -164.13061523 42.69384766 C-161.03377668 44.53371077 -159.62876103 45.29174866 -156.07983398 45.50634766 C-153.06019425 44.62814139 -150.23221268 43.3456287 -147.35717773 42.08056641 C-135.35234189 37.05038937 -123.06385704 33.17735865 -110.64233398 29.31884766 C-108.20434399 28.55625519 -105.76643928 27.79338999 -103.32861328 27.03027344 C-95.98066558 24.73494012 -88.62710951 22.45799022 -81.27236938 20.18453217 C-79.0154637 19.48643695 -76.75890434 18.78723247 -74.50244141 18.08770752 C-65.01877602 15.14793074 -55.53152228 12.22015303 -46.03927612 9.30819702 C-42.9483795 8.3599071 -39.85855337 7.40824241 -36.76956177 6.45376587 C-33.11693214 5.32565188 -29.46178058 4.20611074 -25.80454254 3.09303093 C-24.45463856 2.68076803 -23.1055964 2.26567091 -21.75749969 1.84753609 C-19.904226 1.27331257 -18.04739449 0.71060988 -16.19042969 0.1484375 C-15.14989944 -0.17033356 -14.1093692 -0.48910461 -13.03730774 -0.8175354 C-8.33440471 -1.89268016 -4.4278752 -1.98607771 0 0 Z M-171.07983398 89.50634766 C-189.49935158 106.85978385 -201.8001174 129.48615912 -213.51733398 151.63134766 C-214.11868164 152.76685059 -214.11868164 152.76685059 -214.73217773 153.92529297 C-219.88813701 162.80164046 -219.88813701 162.80164046 -222.07983398 172.50634766 C-220.58129883 172.92207031 -220.58129883 172.92207031 -219.05249023 173.34619141 C-217.74905608 173.71190315 -216.44567329 174.07779803 -215.14233398 174.44384766 C-214.48297852 174.62625 -213.82362305 174.80865234 -213.14428711 174.99658203 C-208.19311523 176.39306641 -208.19311523 176.39306641 -207.07983398 177.50634766 C-207.42752086 182.72165077 -207.96315938 186.17010473 -211.07983398 190.50634766 C-194.13238275 191.80999775 -174.63594472 179.9602614 -161.07983398 170.50634766 C-161.07983398 170.17634766 -161.07983398 169.84634766 -161.07983398 169.50634766 C-162.0350293 169.40837891 -162.99022461 169.31041016 -163.97436523 169.20947266 C-176.38514424 167.77412832 -186.93886485 165.71644494 -195.46264648 155.91650391 C-197.81610505 152.60451751 -198.3633997 150.13705662 -197.70483398 146.13134766 C-197.21067751 144.24327002 -196.66101591 142.36947818 -196.07983398 140.50634766 C-195.50168945 138.61335938 -195.50168945 138.61335938 -194.91186523 136.68212891 C-190.24786742 122.18155217 -183.44136609 108.98142825 -174.1784668 96.88256836 C-171.60300618 93.58739782 -171.60300618 93.58739782 -171.07983398 89.50634766 Z M-172.19311523 128.45166016 C-174.87911735 131.66409954 -174.87911735 131.66409954 -176.07983398 135.50634766 C-174.18336401 135.39141008 -172.28765066 135.26395124 -170.39233398 135.13134766 C-168.8087207 135.02693359 -168.8087207 135.02693359 -167.19311523 134.92041016 C-162.13536683 134.24773597 -159.01933096 132.97260753 -155.76733398 129.00634766 C-154.99969727 128.09369141 -154.99969727 128.09369141 -154.21655273 127.16259766 C-152.89121118 125.56631647 -152.89121118 125.56631647 -153.07983398 123.50634766 C-159.62123145 123.31430663 -167.20345231 123.85858782 -172.19311523 128.45166016 Z " fill="#333332" transform="translate(240.079833984375,106.49365234375)"/>
</svg>
